<svg xmlns="http://www.w3.org/2000/svg" xmlns:xlink="http://www.w3.org/1999/xlink" viewBox="0 0 165.46 138.69"><defs><style>.cls-1{fill:#fff;}.cls-2{fill:#e30613;}.cls-3{fill:url(#Gradiente_sem_nome_29);}.cls-4{fill:none;}.cls-5{fill:url(#Gradiente_sem_nome_29-2);}</style><linearGradient id="Gradiente_sem_nome_29" x1="43.31" y1="47.45" x2="139.35" y2="47.45" gradientUnits="userSpaceOnUse"><stop offset="0.01" stop-color="#be1622"/><stop offset="0.02" stop-color="#c9111e"/><stop offset="0.06" stop-color="#d80b18"/><stop offset="0.1" stop-color="#e00714"/><stop offset="0.16" stop-color="#e30613"/><stop offset="0.21" stop-color="#d50c19"/><stop offset="0.29" stop-color="#c41320"/><stop offset="0.35" stop-color="#be1622"/><stop offset="0.71" stop-color="#e30613"/><stop offset="0.85" stop-color="#be1622"/><stop offset="0.99" stop-color="#e30613"/></linearGradient><linearGradient id="Gradiente_sem_nome_29-2" x1="31.3" y1="122.43" x2="40.13" y2="122.43" xlink:href="#Gradiente_sem_nome_29"/></defs><g id="Camada_2" data-name="Camada 2"><g id="Camada_1-2" data-name="Camada 1"><path class="cls-1" d="M74.48,70.8a31,31,0,0,1-13.16,7.87C49.63,82,39,79.8,29.89,71.78A30.61,30.61,0,0,1,19.24,51.27C18.88,47.67,19,44,19,40.39,19,30.19,19,0,19,0L32.32,1.21s.15,33.88,0,45.94A19.4,19.4,0,0,0,48.72,66.52c7.54,1.12,13.67-1.64,18.39-7.58l.67-.86A38.45,38.45,0,0,0,74.48,70.8Z" transform="translate(-0.41)"/><path class="cls-2" d="M118.13,66.78Z" transform="translate(-0.41)"/><path class="cls-3" d="M139.35,66.78V80.14H116.11c-4.24,0-8.5.13-12.71-.22a30.77,30.77,0,0,1-20.23-9.87,32,32,0,0,1-9.12-22.53A19.42,19.42,0,0,0,54.56,28.15H43.31V14.77H44.6c3.56,0,7.13-.1,10.68,0,12.27.44,21.55,6,27.84,16.53A30.09,30.09,0,0,1,87.39,47,19.41,19.41,0,0,0,102.26,66.2a22.24,22.24,0,0,0,4.6.55c3.07.07,6.14,0,9.25,0Z" transform="translate(-0.41)"/><path class="cls-2" d="M117.93,80.14h0Z" transform="translate(-0.41)"/><path class="cls-1" d="M142.43,46.91A32.58,32.58,0,0,0,94.24,18.74,30.12,30.12,0,0,0,87,24.14a38.16,38.16,0,0,1,6.68,12.69l.66-.82c4.79-6.06,11-8.8,18.69-7.59a19.33,19.33,0,0,1,16.09,19.21c0,3.16,0,7.34,0,11.65h13.38C142.49,54.74,142.47,50.28,142.43,46.91Z" transform="translate(-0.41)"/><polygon class="cls-4" points="58.2 113.42 66.02 113.42 62.12 103.61 58.2 113.42"/><path class="cls-1" d="M.41,126.82V94.74H17q6.41,0,9.54,2.32a7.16,7.16,0,0,1,3.14,6,7.49,7.49,0,0,1-1.29,4.38,8.5,8.5,0,0,1-3.71,2.91,14.38,14.38,0,0,1-5.74,1l.87-2.15a16.5,16.5,0,0,1,6.06,1,8.65,8.65,0,0,1,4,3A7.9,7.9,0,0,1,31.25,118a7.42,7.42,0,0,1-3.39,6.49q-3.39,2.31-10,2.31Zm9.22-6.64h7.51a6.22,6.22,0,0,0,3.48-.8A2.72,2.72,0,0,0,21.8,117a2.65,2.65,0,0,0-1.18-2.38,6.31,6.31,0,0,0-3.48-.78H9v-6.37h6.77a6,6,0,0,0,3.34-.76,2.85,2.85,0,0,0,0-4.54,6.05,6.05,0,0,0-3.34-.75H9.63Z" transform="translate(-0.41)"/><path class="cls-1" d="M40.88,126.82l14.2-32.08H64.3l14.2,32.08H68.82l-11-27.54h3.64L50.38,126.82Zm7.84-6.14,2.4-6.83H66.74l2.45,6.83Z" transform="translate(-0.41)"/><path class="cls-1" d="M78.73,126.82V94.74h9.36v24.75h15.25v7.33Z" transform="translate(-0.41)"/><path class="cls-1" d="M113.94,126.82h-9.35V94.74H130v7.2H113.94Zm-.69-18H128v7.14H113.25Z" transform="translate(-0.41)"/><path class="cls-1" d="M128.05,126.82l14.2-32.08h9.22l14.19,32.08H156L145,99.28h3.64l-11.06,27.54Zm7.84-6.14,2.39-6.83h15.63l2.44,6.83Z" transform="translate(-0.41)"/><path class="cls-1" d="M.69,137.72v-4.6H2.77a2.07,2.07,0,0,1,1.23.32,1,1,0,0,1,.42.87,1.14,1.14,0,0,1-.16.63,1.27,1.27,0,0,1-.46.4,1.39,1.39,0,0,1-.61.13l.12-.19a1.71,1.71,0,0,1,.7.13,1.2,1.2,0,0,1,.48.41,1.16,1.16,0,0,1,.18.66,1.05,1.05,0,0,1-.45.91,2.2,2.2,0,0,1-1.32.33Zm.66-.53H2.87a1.49,1.49,0,0,0,.84-.19.63.63,0,0,0,.29-.57.65.65,0,0,0-.29-.59,1.59,1.59,0,0,0-.84-.18H1.29v-.53H2.71a1.45,1.45,0,0,0,.78-.19.61.61,0,0,0,.27-.55.62.62,0,0,0-.27-.55,1.45,1.45,0,0,0-.78-.18H1.35Z" transform="translate(-0.41)"/><path class="cls-1" d="M6,137.76a.4.4,0,0,1-.31-.13.42.42,0,0,1-.14-.32.44.44,0,0,1,.14-.33.43.43,0,0,1,.31-.12.45.45,0,0,1,.31.12.43.43,0,0,1,.13.33.41.41,0,0,1-.13.32A.42.42,0,0,1,6,137.76Z" transform="translate(-0.41)"/><path class="cls-1" d="M6.91,137.72l2.1-4.6h.65l2.1,4.6h-.69L9.2,133.49h.26l-1.87,4.23Zm.9-1.15L8,136h2.61l.19.53Z" transform="translate(-0.41)"/><path class="cls-1" d="M12.66,137.72v-4.6h.66v4h2.5v.57Z" transform="translate(-0.41)"/><path class="cls-1" d="M17.45,137.72h-.66v-4.6h3.26v.57h-2.6Zm-.06-2.42h2.38v.56H17.39Z" transform="translate(-0.41)"/><path class="cls-1" d="M20.5,137.72l2.09-4.6h.65l2.1,4.6h-.69l-1.87-4.23h.27l-1.87,4.23Zm.89-1.15.18-.53h2.6l.19.53Z" transform="translate(-0.41)"/><path class="cls-1" d="M30.3,137.77a2.8,2.8,0,0,1-1-.17,2.47,2.47,0,0,1-.77-.49,2.38,2.38,0,0,1-.51-.75,2.23,2.23,0,0,1-.19-.94,2.26,2.26,0,0,1,.19-.94,2.23,2.23,0,0,1,.51-.74,2.27,2.27,0,0,1,.78-.5,2.78,2.78,0,0,1,1-.17,2.64,2.64,0,0,1,1,.18,2,2,0,0,1,.77.54l-.43.41a1.8,1.8,0,0,0-.59-.41,2,2,0,0,0-1.43,0,1.63,1.63,0,0,0-.58.36,1.73,1.73,0,0,0-.38.57,1.78,1.78,0,0,0-.14.7,1.83,1.83,0,0,0,.14.71,1.79,1.79,0,0,0,.38.56,1.65,1.65,0,0,0,.58.37,2.09,2.09,0,0,0,.72.13,1.87,1.87,0,0,0,.71-.14,1.8,1.8,0,0,0,.59-.41l.43.41a2,2,0,0,1-.77.54A2.64,2.64,0,0,1,30.3,137.77Z" transform="translate(-0.41)"/><path class="cls-1" d="M35.3,137.77a2.63,2.63,0,0,1-1-.18,2.25,2.25,0,0,1-.78-.49,2.41,2.41,0,0,1-.52-2.61,2.46,2.46,0,0,1,.52-.75,2.4,2.4,0,0,1,.78-.49,2.63,2.63,0,0,1,1-.18,2.84,2.84,0,0,1,1,.17,2.27,2.27,0,0,1,.78.5,2.17,2.17,0,0,1,.51.75,2.34,2.34,0,0,1,.18.93,2.26,2.26,0,0,1-1.47,2.18A2.84,2.84,0,0,1,35.3,137.77Zm0-.58a2.08,2.08,0,0,0,.71-.13,1.77,1.77,0,0,0,1-.94,1.75,1.75,0,0,0,.13-.7,1.7,1.7,0,0,0-.51-1.26,1.56,1.56,0,0,0-.57-.37,1.87,1.87,0,0,0-.71-.13,1.8,1.8,0,0,0-.71.13,1.69,1.69,0,0,0-.58.37,1.7,1.7,0,0,0-.51,1.26,1.75,1.75,0,0,0,.13.7,1.59,1.59,0,0,0,.38.56,1.72,1.72,0,0,0,.58.38A2,2,0,0,0,35.3,137.19Z" transform="translate(-0.41)"/><path class="cls-1" d="M39,137.72v-4.6h.54l3.06,3.78h-.28v-3.78H43v4.6h-.54l-3.06-3.78h.28v3.78Z" transform="translate(-0.41)"/><path class="cls-1" d="M45.89,137.77a3.1,3.1,0,0,1-1-.16,2.19,2.19,0,0,1-.76-.42l.25-.51a2.14,2.14,0,0,0,.67.38,2.45,2.45,0,0,0,.85.15,2,2,0,0,0,.66-.09.78.78,0,0,0,.37-.25.61.61,0,0,0,.12-.37.53.53,0,0,0-.16-.38,1.28,1.28,0,0,0-.4-.23,4,4,0,0,0-.55-.15l-.59-.16a2.74,2.74,0,0,1-.55-.22,1.12,1.12,0,0,1-.4-.38,1.07,1.07,0,0,1-.15-.6,1.25,1.25,0,0,1,.18-.65,1.31,1.31,0,0,1,.59-.48,2.39,2.39,0,0,1,1-.18,3.21,3.21,0,0,1,.8.11,2.23,2.23,0,0,1,.68.3l-.22.52a2,2,0,0,0-.62-.28,2.47,2.47,0,0,0-.64-.09,1.65,1.65,0,0,0-.64.1A.75.75,0,0,0,45,134a.61.61,0,0,0-.12.37.53.53,0,0,0,.16.39,1.09,1.09,0,0,0,.4.22c.17.06.35.11.55.16l.59.15a2.27,2.27,0,0,1,.55.23,1.07,1.07,0,0,1,.4.36,1.09,1.09,0,0,1,.15.6,1.14,1.14,0,0,1-.19.64,1.31,1.31,0,0,1-.59.48A2.47,2.47,0,0,1,45.89,137.77Z" transform="translate(-0.41)"/><path class="cls-1" d="M50.77,137.77a1.93,1.93,0,0,1-1.43-.52,2,2,0,0,1-.52-1.51v-2.62h.66v2.59a1.55,1.55,0,0,0,.34,1.12,1.47,1.47,0,0,0,1.93,0,1.59,1.59,0,0,0,.34-1.12v-2.59h.64v2.62a2,2,0,0,1-.52,1.51A1.93,1.93,0,0,1,50.77,137.77Z" transform="translate(-0.41)"/><path class="cls-1" d="M54.29,137.72v-4.6H55v4h2.51v.57Z" transform="translate(-0.41)"/><path class="cls-1" d="M59.34,137.72v-4H57.76v-.57h3.82v.57H60v4Z" transform="translate(-0.41)"/><path class="cls-1" d="M64.6,137.77a2.63,2.63,0,0,1-1-.18,2.25,2.25,0,0,1-.78-.49,2.41,2.41,0,0,1-.52-2.61,2.46,2.46,0,0,1,.52-.75,2.4,2.4,0,0,1,.78-.49,2.59,2.59,0,0,1,1-.18,2.84,2.84,0,0,1,1,.17,2.27,2.27,0,0,1,.78.5,2.17,2.17,0,0,1,.51.75,2.34,2.34,0,0,1,.18.93,2.26,2.26,0,0,1-1.47,2.18A2.84,2.84,0,0,1,64.6,137.77Zm0-.58a2.09,2.09,0,0,0,.72-.13,1.59,1.59,0,0,0,.57-.38,1.7,1.7,0,0,0,.51-1.26,1.78,1.78,0,0,0-.13-.7,2,2,0,0,0-.38-.56,1.56,1.56,0,0,0-.57-.37,2,2,0,0,0-1.43,0,1.75,1.75,0,0,0-.57.37,1.7,1.7,0,0,0-.51,1.26,1.75,1.75,0,0,0,.13.7,1.59,1.59,0,0,0,.38.56,1.78,1.78,0,0,0,.57.38A2.08,2.08,0,0,0,64.59,137.19Z" transform="translate(-0.41)"/><path class="cls-1" d="M68.27,137.72v-4.6h1.81a2.63,2.63,0,0,1,1,.19,1.4,1.4,0,0,1,.66.56,1.7,1.7,0,0,1,0,1.71,1.44,1.44,0,0,1-.66.55,2.46,2.46,0,0,1-1,.19H68.64l.29-.3v1.7Zm.66-1.64-.29-.32h1.42a1.48,1.48,0,0,0,1-.27A1.07,1.07,0,0,0,71,134a1.48,1.48,0,0,0-1-.27H68.64l.29-.32Zm2.43,1.64-1.17-1.67h.7l1.19,1.67Z" transform="translate(-0.41)"/><path class="cls-1" d="M73.28,137.72v-4.6h.66v4.6Z" transform="translate(-0.41)"/><path class="cls-1" d="M74.84,137.72l2.1-4.6h.65l2.1,4.6H79l-1.87-4.23h.26l-1.87,4.23Zm.89-1.15.18-.53h2.6l.2.53Z" transform="translate(-0.41)"/><path class="cls-1" d="M83.8,137.77a2.12,2.12,0,0,1-.83-.15,1.34,1.34,0,0,1-.58-.42,1,1,0,0,1-.21-.62,1.2,1.2,0,0,1,.14-.57,1.64,1.64,0,0,1,.44-.49,4.88,4.88,0,0,1,.8-.5,5,5,0,0,0,.63-.37,1,1,0,0,0,.32-.3.5.5,0,0,0-.06-.67.67.67,0,0,0-.45-.14.74.74,0,0,0-.49.16.5.5,0,0,0-.18.4.69.69,0,0,0,0,.24,1,1,0,0,0,.16.26,3.17,3.17,0,0,0,.33.35l2.44,2.42-.35.42-2.6-2.57a3.9,3.9,0,0,1-.36-.41,1.21,1.21,0,0,1-.19-.35,1,1,0,0,1-.06-.35,1,1,0,0,1,.15-.54,1.13,1.13,0,0,1,.44-.36,1.65,1.65,0,0,1,.66-.13,1.4,1.4,0,0,1,.6.12.87.87,0,0,1,.4.33.85.85,0,0,1,.14.51,1,1,0,0,1-.12.49,1.54,1.54,0,0,1-.42.43,5.26,5.26,0,0,1-.76.45,4.68,4.68,0,0,0-.62.38,1.13,1.13,0,0,0-.32.35.69.69,0,0,0-.1.37.61.61,0,0,0,.13.39.8.8,0,0,0,.36.25,1.35,1.35,0,0,0,.55.1,1.78,1.78,0,0,0,.8-.19,1.63,1.63,0,0,0,.59-.58,2.8,2.8,0,0,0,.36-.94l.51.16a2.89,2.89,0,0,1-.46,1.13,2.12,2.12,0,0,1-.79.7A2.26,2.26,0,0,1,83.8,137.77Z" transform="translate(-0.41)"/><path class="cls-1" d="M89.3,137.72v-4.6H90v4.6Z" transform="translate(-0.41)"/><path class="cls-1" d="M91.56,137.72v-4.6h.54l3.06,3.78h-.28v-3.78h.66v4.6H95l-3.06-3.78h.28v3.78Z" transform="translate(-0.41)"/><path class="cls-1" d="M98.47,137.72l-2-4.6h.71L99,137.36h-.41l1.88-4.24h.66l-2,4.6Z" transform="translate(-0.41)"/><path class="cls-1" d="M102.71,137.15h2.69v.57h-3.35v-4.6h3.26v.57h-2.6Zm-.06-2H105v.55h-2.38Z" transform="translate(-0.41)"/><path class="cls-1" d="M108,137.77a3.1,3.1,0,0,1-1-.16,2.19,2.19,0,0,1-.76-.42l.25-.51a2.14,2.14,0,0,0,.67.38,2.45,2.45,0,0,0,.85.15,2,2,0,0,0,.66-.09.78.78,0,0,0,.37-.25.67.67,0,0,0,.11-.37.52.52,0,0,0-.15-.38,1.28,1.28,0,0,0-.4-.23,4,4,0,0,0-.55-.15l-.6-.16a2.65,2.65,0,0,1-.54-.22,1.12,1.12,0,0,1-.4-.38,1,1,0,0,1-.16-.6,1.26,1.26,0,0,1,.19-.65,1.33,1.33,0,0,1,.58-.48,2.45,2.45,0,0,1,1-.18,3.09,3.09,0,0,1,.8.11,2.18,2.18,0,0,1,.69.3l-.22.52a2.21,2.21,0,0,0-.63-.28,2.41,2.41,0,0,0-.64-.09,1.69,1.69,0,0,0-.64.1.72.72,0,0,0-.36.26.61.61,0,0,0-.12.37.5.5,0,0,0,.16.39,1,1,0,0,0,.4.22c.16.06.35.11.54.16l.6.15a2.45,2.45,0,0,1,.55.23,1.16,1.16,0,0,1,.4.36,1.09,1.09,0,0,1,.15.6,1.14,1.14,0,0,1-.19.64,1.31,1.31,0,0,1-.59.48A2.47,2.47,0,0,1,108,137.77Z" transform="translate(-0.41)"/><path class="cls-1" d="M111.91,137.72v-4h-1.58v-.57h3.82v.57h-1.58v4Z" transform="translate(-0.41)"/><path class="cls-1" d="M115.08,137.72v-4.6h.66v4.6Z" transform="translate(-0.41)"/><path class="cls-1" d="M117.34,137.72v-4.6h.54L120,136.6h-.29l2-3.48h.55v4.6h-.63v-3.61h.15l-1.82,3h-.3l-1.84-3H118v3.61Z" transform="translate(-0.41)"/><path class="cls-1" d="M124.52,137.15h2.69v.57h-3.35v-4.6h3.26v.57h-2.6Zm-.06-2h2.38v.55h-2.38Z" transform="translate(-0.41)"/><path class="cls-1" d="M128.5,137.72v-4.6H129l3.05,3.78h-.28v-3.78h.66v4.6h-.54l-3.06-3.78h.29v3.78Z" transform="translate(-0.41)"/><path class="cls-1" d="M135,137.72v-4H133.4v-.57h3.83v.57h-1.59v4Z" transform="translate(-0.41)"/><path class="cls-1" d="M140.24,137.77a2.63,2.63,0,0,1-1-.18,2.25,2.25,0,0,1-.78-.49,2.41,2.41,0,0,1-.52-2.61,2.46,2.46,0,0,1,.52-.75,2.4,2.4,0,0,1,.78-.49,2.63,2.63,0,0,1,1-.18,2.8,2.8,0,0,1,1,.17,2.27,2.27,0,0,1,.78.5,2.17,2.17,0,0,1,.51.75,2.34,2.34,0,0,1,.18.93,2.26,2.26,0,0,1-1.47,2.18A2.8,2.8,0,0,1,140.24,137.77Zm0-.58a2,2,0,0,0,.71-.13,1.77,1.77,0,0,0,1-.94,1.75,1.75,0,0,0,.13-.7,1.7,1.7,0,0,0-.51-1.26,1.56,1.56,0,0,0-.57-.37,2,2,0,0,0-1.42,0,1.56,1.56,0,0,0-.57.37,1.64,1.64,0,0,0-.38.56,1.78,1.78,0,0,0-.14.7,1.75,1.75,0,0,0,.14.7,1.47,1.47,0,0,0,.38.56,1.59,1.59,0,0,0,.57.38A2,2,0,0,0,140.24,137.19Z" transform="translate(-0.41)"/><path class="cls-1" d="M145.26,137.77a3.1,3.1,0,0,1-1-.16,2.19,2.19,0,0,1-.76-.42l.25-.51a2.14,2.14,0,0,0,.67.38,2.45,2.45,0,0,0,.85.15,2,2,0,0,0,.66-.09.78.78,0,0,0,.37-.25.67.67,0,0,0,.11-.37.52.52,0,0,0-.15-.38,1.28,1.28,0,0,0-.4-.23,4,4,0,0,0-.55-.15l-.6-.16a2.65,2.65,0,0,1-.54-.22,1.12,1.12,0,0,1-.4-.38,1,1,0,0,1-.16-.6,1.26,1.26,0,0,1,.19-.65,1.33,1.33,0,0,1,.58-.48,2.45,2.45,0,0,1,1-.18,3.09,3.09,0,0,1,.8.11,2.18,2.18,0,0,1,.69.3l-.22.52a2.21,2.21,0,0,0-.63-.28,2.41,2.41,0,0,0-.64-.09,1.69,1.69,0,0,0-.64.1.72.72,0,0,0-.36.26.61.61,0,0,0-.12.37.5.5,0,0,0,.16.39,1,1,0,0,0,.4.22c.16.06.35.11.54.16l.6.15a2.45,2.45,0,0,1,.55.23,1.07,1.07,0,0,1,.4.36,1.09,1.09,0,0,1,.15.6,1.14,1.14,0,0,1-.19.64,1.31,1.31,0,0,1-.59.48A2.47,2.47,0,0,1,145.26,137.77Z" transform="translate(-0.41)"/><path class="cls-1" d="M147.88,138.69l.33-1.33.09.39a.44.44,0,0,1-.32-.12.41.41,0,0,1-.13-.32.43.43,0,0,1,.44-.45.39.39,0,0,1,.31.13.44.44,0,0,1,.12.32.49.49,0,0,1,0,.12,1,1,0,0,1,0,.15l-.07.2-.31.91Z" transform="translate(-0.41)"/><path class="cls-1" d="M151.92,137.72v-4.6h.66v4h2.51v.57Z" transform="translate(-0.41)"/><path class="cls-1" d="M156.06,137.72v-4.6H158a2.86,2.86,0,0,1,1.3.29,2.09,2.09,0,0,1,.88.81,2.28,2.28,0,0,1,.31,1.2,2.23,2.23,0,0,1-.31,1.2,2.09,2.09,0,0,1-.88.81,2.86,2.86,0,0,1-1.3.29Zm.66-.57H158a2.07,2.07,0,0,0,1-.22,1.53,1.53,0,0,0,.65-.61,1.77,1.77,0,0,0,.23-.9,1.74,1.74,0,0,0-.23-.9,1.6,1.6,0,0,0-.65-.61,2.19,2.19,0,0,0-1-.22h-1.25Z" transform="translate(-0.41)"/><path class="cls-1" d="M161,137.72l2.1-4.6h.65l2.1,4.6h-.69l-1.87-4.23h.26l-1.87,4.23Zm.9-1.15.17-.53h2.61l.19.53Z" transform="translate(-0.41)"/><path class="cls-5" d="M40.13,122.43a4.6,4.6,0,0,1-.08.84,4.4,4.4,0,0,1-.86,1.87,4.48,4.48,0,0,1-.36.4,4.36,4.36,0,0,1-2.44,1.23,5.06,5.06,0,0,1-.68,0,4.4,4.4,0,0,1-2.62-.86,4.33,4.33,0,0,1-1.79-3.44v-.09c0-.12,0-.25,0-.37a4.35,4.35,0,0,1,1.28-2.73l.27-.25a4.42,4.42,0,0,1,6,.25,4,4,0,0,1,.56.67A4.41,4.41,0,0,1,40.13,122.43Z" transform="translate(-0.41)"/></g></g></svg>