<svg xmlns="http://www.w3.org/2000/svg" xmlns:xlink="http://www.w3.org/1999/xlink" viewBox="0 0 167 35.37"><defs><style>.cls-1{fill:#1d1d1b;}.cls-2{fill:#3c3c3b;}.cls-3{fill:url(#Gradiente_sem_nome_29);}.cls-4{fill:#e30613;}.cls-5{fill:url(#Gradiente_sem_nome_17);}.cls-6{fill:url(#Gradiente_sem_nome_17-2);}.cls-7{fill:url(#Gradiente_sem_nome_17-3);}.cls-8{fill:url(#Gradiente_sem_nome_17-4);}.cls-9{fill:url(#Gradiente_sem_nome_17-5);}</style><linearGradient id="Gradiente_sem_nome_29" x1="78.8" y1="23.76" x2="84.59" y2="23.76" gradientUnits="userSpaceOnUse"><stop offset="0.01" stop-color="#be1622"/><stop offset="0.02" stop-color="#c9111e"/><stop offset="0.06" stop-color="#d80b18"/><stop offset="0.1" stop-color="#e00714"/><stop offset="0.16" stop-color="#e30613"/><stop offset="0.21" stop-color="#d50c19"/><stop offset="0.29" stop-color="#c41320"/><stop offset="0.35" stop-color="#be1622"/><stop offset="0.71" stop-color="#e30613"/><stop offset="0.85" stop-color="#be1622"/><stop offset="0.99" stop-color="#e30613"/></linearGradient><linearGradient id="Gradiente_sem_nome_17" y1="16.55" x2="22.91" y2="16.55" gradientUnits="userSpaceOnUse"><stop offset="0" stop-color="#fff"/><stop offset="0.48" stop-color="#1d1d1b" stop-opacity="0.1"/><stop offset="1" stop-color="#f1f1f1"/></linearGradient><linearGradient id="Gradiente_sem_nome_17-2" x1="40.26" y1="27.56" x2="40.92" y2="27.56" xlink:href="#Gradiente_sem_nome_17"/><linearGradient id="Gradiente_sem_nome_17-3" x1="10.04" y1="19.58" x2="49.68" y2="19.58" xlink:href="#Gradiente_sem_nome_17"/><linearGradient id="Gradiente_sem_nome_17-4" x1="40.09" y1="33.08" x2="40.84" y2="33.08" xlink:href="#Gradiente_sem_nome_17"/><linearGradient id="Gradiente_sem_nome_17-5" x1="28.07" y1="15.28" x2="50.98" y2="15.28" xlink:href="#Gradiente_sem_nome_17"/></defs><g id="Camada_2" data-name="Camada 2"><g id="Camada_1-2" data-name="Camada 1"><path class="cls-1" d="M58.56,26.64v-21H69.4q4.2,0,6.26,1.52a4.71,4.71,0,0,1,2,4A4.86,4.86,0,0,1,76.86,14a5.62,5.62,0,0,1-2.43,1.91,9.38,9.38,0,0,1-3.76.69l.57-1.42a10.63,10.63,0,0,1,4,.67,5.68,5.68,0,0,1,2.61,1.95,5.2,5.2,0,0,1,.94,3.12,4.86,4.86,0,0,1-2.22,4.25Q74.33,26.64,70,26.64Zm6-4.36h4.92a4,4,0,0,0,2.28-.52,1.77,1.77,0,0,0,.77-1.58,1.73,1.73,0,0,0-.77-1.56,4.14,4.14,0,0,0-2.28-.51H64.18V13.93h4.44a4,4,0,0,0,2.19-.49A1.68,1.68,0,0,0,71.55,12a1.68,1.68,0,0,0-.74-1.49A4,4,0,0,0,68.62,10h-4Z"/><path class="cls-1" d="M85.08,26.64l9.31-21h6l9.3,21h-6.34l-7.22-18h2.38L91.3,26.64Zm5.14-4,1.57-4.47H102l1.6,4.47Z"/><path class="cls-1" d="M109.88,26.64v-21H116V21.83h10v4.81Z"/><path class="cls-1" d="M133,26.64h-6.13v-21h16.65v4.72H133Zm-.45-11.84h9.67v4.69h-9.67Z"/><path class="cls-1" d="M142.21,26.64l9.3-21h6.05l9.3,21h-6.34l-7.22-18h2.38l-7.25,18.05Zm5.13-4,1.58-4.47h10.24l1.6,4.47Z"/><path class="cls-2" d="M58.74,33.78v-3H60.1a1.29,1.29,0,0,1,.8.21.68.68,0,0,1,.29.57.76.76,0,0,1-.11.41.83.83,0,0,1-.3.26.9.9,0,0,1-.4.09l.07-.13a1.08,1.08,0,0,1,.46.09.71.71,0,0,1,.44.7.71.71,0,0,1-.3.6,1.45,1.45,0,0,1-.86.21Zm.43-.35h1a1,1,0,0,0,.55-.12.48.48,0,0,0,0-.76,1,1,0,0,0-.55-.12h-1v-.35h.93a.92.92,0,0,0,.51-.12.45.45,0,0,0,0-.72.92.92,0,0,0-.51-.12h-.89Z"/><path class="cls-2" d="M62.19,33.81a.25.25,0,0,1-.2-.09.27.27,0,0,1-.09-.21A.26.26,0,0,1,62,33.3a.24.24,0,0,1,.2-.08.28.28,0,0,1,.21.08.29.29,0,0,1,.08.21.3.3,0,0,1-.08.21A.29.29,0,0,1,62.19,33.81Z"/><path class="cls-2" d="M62.82,33.78l1.37-3h.43l1.37,3h-.45L64.31,31h.18l-1.23,2.77ZM63.4,33l.12-.35h1.7l.13.35Z"/><path class="cls-2" d="M66.58,33.78v-3H67v2.64h1.64v.37Z"/><path class="cls-2" d="M69.72,33.78h-.43v-3h2.14v.37H69.72Zm0-1.59h1.56v.37H69.68Z"/><path class="cls-2" d="M71.72,33.78l1.37-3h.43l1.38,3h-.46L73.22,31h.17l-1.22,2.77ZM72.3,33l.12-.35h1.71l.12.35Z"/><path class="cls-2" d="M78.14,33.81a1.69,1.69,0,0,1-.64-.11,1.53,1.53,0,0,1-.5-.32,1.39,1.39,0,0,1-.34-.49,1.56,1.56,0,0,1-.12-.62,1.51,1.51,0,0,1,.12-.61,1.54,1.54,0,0,1,.34-.49,1.34,1.34,0,0,1,.51-.32,1.77,1.77,0,0,1,1.28,0,1.41,1.41,0,0,1,.51.35l-.28.27a1.25,1.25,0,0,0-.39-.27,1.45,1.45,0,0,0-.47-.08,1.18,1.18,0,0,0-.85.32,1.15,1.15,0,0,0-.25.37,1.18,1.18,0,0,0-.09.46,1.23,1.23,0,0,0,.09.47,1,1,0,0,0,.25.36,1.09,1.09,0,0,0,.38.25,1.45,1.45,0,0,0,.47.08,1.23,1.23,0,0,0,.47-.09,1.25,1.25,0,0,0,.39-.27l.28.27a1.3,1.3,0,0,1-.51.35A1.67,1.67,0,0,1,78.14,33.81Z"/><path class="cls-2" d="M81.42,33.81a1.69,1.69,0,0,1-.64-.11,1.5,1.5,0,0,1-.51-.33,1.39,1.39,0,0,1-.34-.49,1.51,1.51,0,0,1-.12-.61,1.54,1.54,0,0,1,.12-.61,1.49,1.49,0,0,1,.34-.49,1.64,1.64,0,0,1,.51-.32,1.77,1.77,0,0,1,1.28,0,1.34,1.34,0,0,1,.51.32,1.39,1.39,0,0,1,.34.49,1.64,1.64,0,0,1,0,1.23,1.39,1.39,0,0,1-.34.49,1.48,1.48,0,0,1-.51.32A1.66,1.66,0,0,1,81.42,33.81Zm0-.38a1.4,1.4,0,0,0,.47-.08,1.15,1.15,0,0,0,.37-.25,1.05,1.05,0,0,0,.25-.37,1.14,1.14,0,0,0,.09-.46,1.1,1.1,0,0,0-.09-.45,1.05,1.05,0,0,0-.25-.37,1.15,1.15,0,0,0-.37-.25,1.19,1.19,0,0,0-.47-.08,1.22,1.22,0,0,0-.47.08,1.15,1.15,0,0,0-.37.25,1.05,1.05,0,0,0-.25.37,1.1,1.1,0,0,0-.09.45,1.14,1.14,0,0,0,.09.46,1.05,1.05,0,0,0,.25.37,1.15,1.15,0,0,0,.37.25A1.45,1.45,0,0,0,81.42,33.43Z"/><path class="cls-2" d="M83.83,33.78v-3h.35l2,2.47H86V30.77h.43v3h-.35l-2-2.47h.18v2.47Z"/><path class="cls-2" d="M88.36,33.81a2.07,2.07,0,0,1-.66-.1,1.48,1.48,0,0,1-.5-.27l.16-.34a1.6,1.6,0,0,0,.45.25,1.49,1.49,0,0,0,.55.1,1.27,1.27,0,0,0,.43-.06.58.58,0,0,0,.25-.17.4.4,0,0,0,.07-.24.33.33,0,0,0-.1-.25.81.81,0,0,0-.26-.15l-.36-.1-.39-.1a1.94,1.94,0,0,1-.36-.15.67.67,0,0,1-.26-.24.7.7,0,0,1-.1-.4.79.79,0,0,1,.12-.42.87.87,0,0,1,.38-.32,1.56,1.56,0,0,1,.66-.12,2.32,2.32,0,0,1,.52.07,1.33,1.33,0,0,1,.45.2l-.14.34a1.61,1.61,0,0,0-.83-.24,1.25,1.25,0,0,0-.42.06.51.51,0,0,0-.24.18.41.41,0,0,0-.08.24.36.36,0,0,0,.1.25.87.87,0,0,0,.27.15l.36.1.39.1a1.94,1.94,0,0,1,.36.15.85.85,0,0,1,.26.24.75.75,0,0,1,.1.39.72.72,0,0,1-.13.42.85.85,0,0,1-.39.32A1.75,1.75,0,0,1,88.36,33.81Z"/><path class="cls-2" d="M91.56,33.81a1.26,1.26,0,0,1-.94-.34,1.35,1.35,0,0,1-.34-1V30.77h.43v1.69a1,1,0,0,0,.23.74,1,1,0,0,0,1.26,0,1,1,0,0,0,.22-.74V30.77h.42v1.71a1.31,1.31,0,0,1-.34,1A1.25,1.25,0,0,1,91.56,33.81Z"/><path class="cls-2" d="M93.87,33.78v-3h.43v2.64h1.64v.37Z"/><path class="cls-2" d="M97.18,33.78V31.14h-1v-.37h2.51v.37h-1v2.64Z"/><path class="cls-2" d="M100.63,33.81a1.71,1.71,0,0,1-.65-.11,1.5,1.5,0,0,1-.51-.33,1.54,1.54,0,0,1-.34-.49,1.51,1.51,0,0,1-.12-.61,1.54,1.54,0,0,1,.12-.61,1.66,1.66,0,0,1,.34-.49,1.64,1.64,0,0,1,.51-.32,1.79,1.79,0,0,1,1.29,0,1.44,1.44,0,0,1,.84.81,1.64,1.64,0,0,1,0,1.23,1.51,1.51,0,0,1-.33.49,1.61,1.61,0,0,1-1.15.43Zm0-.38a1.4,1.4,0,0,0,.47-.08,1.17,1.17,0,0,0,.62-.62,1.14,1.14,0,0,0,.09-.46,1.1,1.1,0,0,0-.09-.45,1.17,1.17,0,0,0-.62-.62,1.19,1.19,0,0,0-.47-.08,1.14,1.14,0,0,0-.46.08,1.09,1.09,0,0,0-.38.25,1.05,1.05,0,0,0-.25.37,1.1,1.1,0,0,0-.09.45,1.14,1.14,0,0,0,.09.46,1.05,1.05,0,0,0,.25.37,1.09,1.09,0,0,0,.38.25A1.34,1.34,0,0,0,100.62,33.43Z"/><path class="cls-2" d="M103,33.78v-3h1.18a1.72,1.72,0,0,1,.68.12,1.13,1.13,0,0,1,.44.36,1.05,1.05,0,0,1,.15.57,1,1,0,0,1-.15.56,1,1,0,0,1-.44.36,1.72,1.72,0,0,1-.68.12h-.94l.19-.19v1.11Zm.43-1.07-.19-.21h.93a1,1,0,0,0,.63-.18.63.63,0,0,0,.21-.5.61.61,0,0,0-.21-.5,1,1,0,0,0-.63-.18h-.93l.19-.21Zm1.6,1.07-.77-1.09h.46l.78,1.09Z"/><path class="cls-2" d="M106.32,33.78v-3h.43v3Z"/><path class="cls-2" d="M107.34,33.78l1.37-3h.43l1.37,3h-.45L108.84,31H109l-1.23,2.77Zm.58-.75.12-.35h1.7l.13.35Z"/><path class="cls-2" d="M113.21,33.81a1.55,1.55,0,0,1-.55-.09,1,1,0,0,1-.38-.28.65.65,0,0,1-.13-.41.78.78,0,0,1,.09-.37,1,1,0,0,1,.29-.32,2.61,2.61,0,0,1,.52-.33,3.2,3.2,0,0,0,.41-.24.87.87,0,0,0,.22-.2.34.34,0,0,0,.06-.2.3.3,0,0,0-.11-.23.37.37,0,0,0-.29-.1.49.49,0,0,0-.32.1.34.34,0,0,0-.12.27.45.45,0,0,0,0,.16.46.46,0,0,0,.11.16c0,.07.12.14.21.24l1.61,1.58-.24.28-1.7-1.69-.24-.26a.73.73,0,0,1-.12-.23.62.62,0,0,1,0-.23.6.6,0,0,1,.39-.59,1,1,0,0,1,.82,0,.54.54,0,0,1,.36.55.62.62,0,0,1-.09.32.79.79,0,0,1-.27.28,3.84,3.84,0,0,1-.5.3,2.16,2.16,0,0,0-.4.25.71.71,0,0,0-.21.22.45.45,0,0,0-.07.25.38.38,0,0,0,.09.25.5.5,0,0,0,.24.17,1,1,0,0,0,.35.06,1.15,1.15,0,0,0,.53-.12,1.17,1.17,0,0,0,.39-.38,2,2,0,0,0,.23-.62l.33.11a1.93,1.93,0,0,1-.29.73,1.34,1.34,0,0,1-.52.46A1.46,1.46,0,0,1,113.21,33.81Z"/><path class="cls-2" d="M116.82,33.78v-3h.43v3Z"/><path class="cls-2" d="M118.3,33.78v-3h.35l2,2.47h-.18V30.77h.43v3h-.35l-2-2.47h.19v2.47Z"/><path class="cls-2" d="M122.82,33.78l-1.33-3H122l1.22,2.78h-.27l1.24-2.78h.43l-1.33,3Z"/><path class="cls-2" d="M125.6,33.41h1.77v.37h-2.2v-3h2.14v.37H125.6Zm0-1.34h1.56v.36h-1.56Z"/><path class="cls-2" d="M129.09,33.81a2.07,2.07,0,0,1-.66-.1,1.39,1.39,0,0,1-.5-.27l.16-.34a1.41,1.41,0,0,0,.44.25,1.54,1.54,0,0,0,.56.1,1.27,1.27,0,0,0,.43-.06.5.5,0,0,0,.24-.17.41.41,0,0,0,.08-.24.37.37,0,0,0-.1-.25.87.87,0,0,0-.27-.15l-.35-.1-.4-.1a1.94,1.94,0,0,1-.36-.15.85.85,0,0,1-.26-.24.79.79,0,0,1-.1-.4.72.72,0,0,1,.13-.42.87.87,0,0,1,.38-.32,1.54,1.54,0,0,1,.65-.12,2.41,2.41,0,0,1,.53.07,1.54,1.54,0,0,1,.45.2l-.15.34a1.5,1.5,0,0,0-.41-.18,1.52,1.52,0,0,0-.42-.06,1.25,1.25,0,0,0-.42.06.51.51,0,0,0-.24.18.4.4,0,0,0-.07.24.32.32,0,0,0,.1.25.81.81,0,0,0,.26.15l.36.1.39.1a1.94,1.94,0,0,1,.36.15.67.67,0,0,1,.36.63.79.79,0,0,1-.12.42,1,1,0,0,1-.39.32A1.82,1.82,0,0,1,129.09,33.81Z"/><path class="cls-2" d="M131.63,33.78V31.14h-1v-.37h2.5v.37h-1v2.64Z"/><path class="cls-2" d="M133.71,33.78v-3h.43v3Z"/><path class="cls-2" d="M135.19,33.78v-3h.36L136.91,33h-.2l1.35-2.27h.35v3H138V31.42h.1l-1.2,2h-.2l-1.2-2h.11v2.36Z"/><path class="cls-2" d="M139.9,33.41h1.76v.37h-2.2v-3h2.14v.37h-1.7Zm0-1.34h1.55v.36h-1.55Z"/><path class="cls-2" d="M142.5,33.78v-3h.36l2,2.47h-.19V30.77h.44v3h-.36l-2-2.47h.18v2.47Z"/><path class="cls-2" d="M146.76,33.78V31.14h-1v-.37h2.5v.37h-1v2.64Z"/><path class="cls-2" d="M150.2,33.81a1.69,1.69,0,0,1-.64-.11,1.65,1.65,0,0,1-.52-.33,1.53,1.53,0,0,1-.45-1.1,1.54,1.54,0,0,1,.12-.61,1.63,1.63,0,0,1,.33-.49,1.82,1.82,0,0,1,.52-.32,1.66,1.66,0,0,1,.64-.12,1.69,1.69,0,0,1,.64.12,1.34,1.34,0,0,1,.51.32,1.39,1.39,0,0,1,.34.49,1.64,1.64,0,0,1,0,1.23,1.39,1.39,0,0,1-.34.49,1.48,1.48,0,0,1-.51.32A1.69,1.69,0,0,1,150.2,33.81Zm0-.38a1.45,1.45,0,0,0,.47-.08,1.15,1.15,0,0,0,.37-.25,1,1,0,0,0,.24-.37,1.14,1.14,0,0,0,.09-.46,1.1,1.1,0,0,0-.09-.45,1,1,0,0,0-.24-.37,1.15,1.15,0,0,0-.37-.25,1.22,1.22,0,0,0-.47-.08,1.19,1.19,0,0,0-.47.08,1.17,1.17,0,0,0-.62.62,1.1,1.1,0,0,0-.09.45,1.14,1.14,0,0,0,.09.46,1.17,1.17,0,0,0,.62.62A1.4,1.4,0,0,0,150.2,33.43Z"/><path class="cls-2" d="M153.49,33.81a2.07,2.07,0,0,1-.66-.1,1.39,1.39,0,0,1-.5-.27l.16-.34a1.59,1.59,0,0,0,1,.35,1.27,1.27,0,0,0,.43-.06.5.5,0,0,0,.24-.17.41.41,0,0,0,.08-.24.37.37,0,0,0-.1-.25.87.87,0,0,0-.27-.15l-.35-.1-.4-.1a1.94,1.94,0,0,1-.36-.15.85.85,0,0,1-.26-.24.79.79,0,0,1-.1-.4.72.72,0,0,1,.13-.42.87.87,0,0,1,.38-.32,1.54,1.54,0,0,1,.65-.12,2.41,2.41,0,0,1,.53.07,1.54,1.54,0,0,1,.45.2l-.15.34a1.5,1.5,0,0,0-.41-.18,1.52,1.52,0,0,0-.42-.06,1.25,1.25,0,0,0-.42.06.51.51,0,0,0-.24.18.4.4,0,0,0-.07.24.32.32,0,0,0,.1.25.81.81,0,0,0,.26.15l.36.1.39.1a1.94,1.94,0,0,1,.36.15.67.67,0,0,1,.36.63.79.79,0,0,1-.12.42,1,1,0,0,1-.39.32A1.82,1.82,0,0,1,153.49,33.81Z"/><path class="cls-2" d="M155.21,34.42l.21-.87.06.25a.32.32,0,0,1-.21-.08.32.32,0,0,1,0-.42.28.28,0,0,1,.21-.08.24.24,0,0,1,.2.08.32.32,0,0,1,.08.21.19.19,0,0,1,0,.08.44.44,0,0,1,0,.1l0,.13-.2.6Z"/><path class="cls-2" d="M157.86,33.78v-3h.43v2.64h1.64v.37Z"/><path class="cls-2" d="M160.57,33.78v-3h1.27a1.82,1.82,0,0,1,.86.19,1.33,1.33,0,0,1,.57.53,1.45,1.45,0,0,1,.21.78,1.48,1.48,0,0,1-.21.79,1.39,1.39,0,0,1-.57.53,1.82,1.82,0,0,1-.86.19Zm.43-.37h.82a1.36,1.36,0,0,0,.65-.15,1,1,0,0,0,.42-.39,1.19,1.19,0,0,0,.16-.6,1.16,1.16,0,0,0-.16-.59,1.08,1.08,0,0,0-.42-.4,1.48,1.48,0,0,0-.65-.14H161Z"/><path class="cls-2" d="M163.82,33.78l1.37-3h.43l1.38,3h-.46L165.32,31h.17l-1.22,2.77Zm.58-.75.12-.35h1.71l.12.35Z"/><path class="cls-3" d="M84.59,23.76a2.51,2.51,0,0,1-.06.55A2.83,2.83,0,0,1,84,25.54c-.07.09-.15.17-.23.26a2.88,2.88,0,0,1-1.6.8,2.28,2.28,0,0,1-.45,0A2.92,2.92,0,0,1,80,26.08a2.89,2.89,0,0,1-1.17-2.26v-.06a1.93,1.93,0,0,1,0-.24,2.84,2.84,0,0,1,.84-1.79l.17-.17a2.9,2.9,0,0,1,3.92.17,3.13,3.13,0,0,1,.36.44A2.8,2.8,0,0,1,84.59,23.76Z"/><path class="cls-4" d="M40.75,27.62Z"/><path class="cls-4" d="M40.67,33.09h0Z"/><rect x="53.69" y="5.01" width="1.07" height="30.36"/><path class="cls-5" d="M22.91,29.22a12.85,12.85,0,0,1-5.43,3.25,13.12,13.12,0,0,1-13-2.84A12.66,12.66,0,0,1,.11,21.16,44.73,44.73,0,0,1,0,16.67C0,12.46,0,0,0,0L5.51.5s.06,14,0,19a8,8,0,0,0,6.77,8,7.73,7.73,0,0,0,7.59-3.12l.27-.36A15.77,15.77,0,0,0,22.91,29.22Z"/><path class="cls-6" d="M40.92,27.56Z"/><path class="cls-7" d="M49.68,27.56v5.52H40.09c-1.75,0-3.51.05-5.25-.09a12.72,12.72,0,0,1-8.35-4.08,13.24,13.24,0,0,1-3.76-9.3,8,8,0,0,0-8-8H10V6.1h.53c1.47,0,2.95,0,4.41,0a13.22,13.22,0,0,1,11.49,6.82,12.44,12.44,0,0,1,1.77,6.48,8,8,0,0,0,6.13,7.92,9.38,9.38,0,0,0,1.9.22c1.27,0,2.54,0,3.82,0Z"/><path class="cls-8" d="M40.84,33.08h0Z"/><path class="cls-9" d="M51,19.36a13.77,13.77,0,0,0-.45-3.26A13.46,13.46,0,0,0,31.06,7.74a12.43,12.43,0,0,0-3,2.22,15.69,15.69,0,0,1,2.76,5.24l.27-.34a7.79,7.79,0,0,1,7.72-3.13,8,8,0,0,1,6.64,7.93v4.81H51C51,22.59,51,20.75,51,19.36Z"/></g></g></svg>