<svg xmlns="http://www.w3.org/2000/svg" xmlns:xlink="http://www.w3.org/1999/xlink" viewBox="0 0 167.19 35.26"><defs><style>.cls-1{fill:#fff;}.cls-2{fill:url(#Gradiente_sem_nome_29);}.cls-3{fill:url(#Gradiente_sem_nome_17);}.cls-4{fill:#e30613;}.cls-5{fill:url(#Gradiente_sem_nome_17-2);}</style><linearGradient id="Gradiente_sem_nome_29" x1="78.99" y1="23.65" x2="84.78" y2="23.65" gradientUnits="userSpaceOnUse"><stop offset="0.01" stop-color="#be1622"/><stop offset="0.02" stop-color="#c9111e"/><stop offset="0.06" stop-color="#d80b18"/><stop offset="0.1" stop-color="#e00714"/><stop offset="0.16" stop-color="#e30613"/><stop offset="0.21" stop-color="#d50c19"/><stop offset="0.29" stop-color="#c41320"/><stop offset="0.35" stop-color="#be1622"/><stop offset="0.71" stop-color="#e30613"/><stop offset="0.85" stop-color="#be1622"/><stop offset="0.99" stop-color="#e30613"/></linearGradient><linearGradient id="Gradiente_sem_nome_17" x1="40.26" y1="27.56" x2="40.92" y2="27.56" gradientUnits="userSpaceOnUse"><stop offset="0" stop-color="#fff"/><stop offset="0.48" stop-color="#1d1d1b" stop-opacity="0.1"/><stop offset="1" stop-color="#f1f1f1"/></linearGradient><linearGradient id="Gradiente_sem_nome_17-2" x1="40.09" y1="33.08" x2="40.84" y2="33.08" xlink:href="#Gradiente_sem_nome_17"/></defs><g id="Camada_2" data-name="Camada 2"><g id="Camada_1-2" data-name="Camada 1"><path class="cls-1" d="M58.75,26.53V5.5H69.59q4.2,0,6.26,1.52a4.69,4.69,0,0,1,2.05,4,4.93,4.93,0,0,1-.84,2.87,5.64,5.64,0,0,1-2.44,1.91,9.35,9.35,0,0,1-3.76.69L71.44,15a10.82,10.82,0,0,1,4,.66,5.68,5.68,0,0,1,2.61,2A5.13,5.13,0,0,1,79,20.76,4.85,4.85,0,0,1,76.74,25q-2.22,1.51-6.54,1.52Zm6-4.36h4.92A4.11,4.11,0,0,0,72,21.65a1.8,1.8,0,0,0,.77-1.58A1.75,1.75,0,0,0,72,18.51,4.2,4.2,0,0,0,69.71,18H64.37V13.82h4.44A4,4,0,0,0,71,13.33a1.68,1.68,0,0,0,.74-1.49A1.7,1.7,0,0,0,71,10.35a4,4,0,0,0-2.19-.49h-4Z"/><path class="cls-1" d="M85.27,26.53l9.31-21h6l9.3,21h-6.34l-7.22-18h2.39L91.5,26.53Zm5.14-4L92,18h10.24l1.6,4.48Z"/><path class="cls-1" d="M110.08,26.53V5.5h6.13V21.72h10v4.81Z"/><path class="cls-1" d="M133.16,26.53H127V5.5h16.65v4.72H133.16ZM132.7,14.7h9.67v4.68H132.7Z"/><path class="cls-1" d="M142.4,26.53l9.31-21h6l9.3,21h-6.34l-7.22-18h2.38l-7.25,18.05Zm5.14-4L149.11,18h10.24l1.6,4.48Z"/><path class="cls-1" d="M58.93,33.67v-3h1.36a1.35,1.35,0,0,1,.81.21.69.69,0,0,1,.28.57.76.76,0,0,1-.11.41.83.83,0,0,1-.3.26.9.9,0,0,1-.4.09l.08-.13a1.06,1.06,0,0,1,.45.09.71.71,0,0,1,.32.27.73.73,0,0,1,.12.43.7.7,0,0,1-.29.6,1.51,1.51,0,0,1-.87.21Zm.44-.35h1a1,1,0,0,0,.55-.12.4.4,0,0,0,.19-.38.41.41,0,0,0-.19-.38,1,1,0,0,0-.55-.12h-1V32h.92a.92.92,0,0,0,.51-.12.45.45,0,0,0,0-.72.92.92,0,0,0-.51-.12h-.88Z"/><path class="cls-1" d="M62.39,33.7a.29.29,0,0,1-.21-.09.29.29,0,0,1,0-.42.28.28,0,0,1,.21-.08.27.27,0,0,1,.2.08.32.32,0,0,1,0,.42A.28.28,0,0,1,62.39,33.7Z"/><path class="cls-1" d="M63,33.67l1.37-3h.43l1.38,3h-.46L64.51,30.9h.17l-1.23,2.77Zm.58-.75.12-.35h1.71l.12.35Z"/><path class="cls-1" d="M66.77,33.67v-3h.44V33.3h1.64v.37Z"/><path class="cls-1" d="M69.92,33.67h-.44v-3h2.14V31h-1.7Zm0-1.59h1.57v.37H69.87Z"/><path class="cls-1" d="M71.91,33.67l1.37-3h.43l1.38,3h-.46L73.41,30.9h.17l-1.22,2.77Zm.59-.75.11-.35h1.71l.12.35Z"/><path class="cls-1" d="M78.33,33.71a1.61,1.61,0,0,1-.63-.12,1.34,1.34,0,0,1-.51-.32,1.49,1.49,0,0,1-.46-1.1,1.56,1.56,0,0,1,.12-.62,1.54,1.54,0,0,1,.34-.49,1.52,1.52,0,0,1,.51-.32,1.66,1.66,0,0,1,.64-.12,1.75,1.75,0,0,1,.65.12,1.46,1.46,0,0,1,.5.35l-.28.27a1.07,1.07,0,0,0-.39-.26,1.22,1.22,0,0,0-.46-.09,1.51,1.51,0,0,0-.48.08,1.36,1.36,0,0,0-.38.24,1.34,1.34,0,0,0-.25.37,1.4,1.4,0,0,0-.08.47,1.39,1.39,0,0,0,.08.46,1.34,1.34,0,0,0,.25.37,1.36,1.36,0,0,0,.38.24,1.51,1.51,0,0,0,.48.08,1.22,1.22,0,0,0,.46-.09,1.1,1.1,0,0,0,.39-.27l.28.27a1.49,1.49,0,0,1-.5.36A1.76,1.76,0,0,1,78.33,33.71Z"/><path class="cls-1" d="M81.61,33.71a1.69,1.69,0,0,1-.64-.12,1.5,1.5,0,0,1-.51-.33,1.36,1.36,0,0,1-.34-.48,1.64,1.64,0,0,1,0-1.23,1.36,1.36,0,0,1,.34-.48,1.5,1.5,0,0,1,.51-.33,1.69,1.69,0,0,1,.64-.12,1.62,1.62,0,0,1,.64.12,1.46,1.46,0,0,1,.52.32,1.51,1.51,0,0,1,.33.49,1.64,1.64,0,0,1,0,1.23,1.51,1.51,0,0,1-.33.49,1.46,1.46,0,0,1-.52.32A1.62,1.62,0,0,1,81.61,33.71Zm0-.39a1.4,1.4,0,0,0,.47-.08,1.05,1.05,0,0,0,.37-.25,1,1,0,0,0,.25-.36,1.18,1.18,0,0,0,.09-.46,1.15,1.15,0,0,0-.34-.83,1.05,1.05,0,0,0-.37-.25,1.4,1.4,0,0,0-.47-.08,1.45,1.45,0,0,0-.47.08,1.16,1.16,0,0,0-.71,1.08,1.18,1.18,0,0,0,.09.46,1,1,0,0,0,.25.36,1.15,1.15,0,0,0,.37.25A1.45,1.45,0,0,0,81.61,33.32Z"/><path class="cls-1" d="M84,33.67v-3h.36l2,2.47h-.19V30.66h.44v3h-.36l-2-2.47h.18v2.47Z"/><path class="cls-1" d="M88.56,33.71a2.14,2.14,0,0,1-.67-.11,1.34,1.34,0,0,1-.49-.27l.16-.34a1.24,1.24,0,0,0,.44.25,1.5,1.5,0,0,0,.56.1,1.21,1.21,0,0,0,.42-.06.53.53,0,0,0,.25-.17.4.4,0,0,0,.08-.23.31.31,0,0,0-.11-.25.61.61,0,0,0-.26-.16l-.36-.1-.39-.1a1.94,1.94,0,0,1-.36-.15.75.75,0,0,1-.26-.24.67.67,0,0,1-.1-.39.8.8,0,0,1,.12-.43.93.93,0,0,1,.38-.32,1.59,1.59,0,0,1,.66-.12,2.25,2.25,0,0,1,.52.07,1.56,1.56,0,0,1,.45.2l-.14.35a1.38,1.38,0,0,0-.41-.19,1.52,1.52,0,0,0-.42-.06,1,1,0,0,0-.42.07.5.5,0,0,0-.24.17.41.41,0,0,0-.08.24.33.33,0,0,0,.11.25.51.51,0,0,0,.26.15l.36.1.39.11a1.42,1.42,0,0,1,.36.14.75.75,0,0,1,.26.24.67.67,0,0,1,.1.39.72.72,0,0,1-.13.42.87.87,0,0,1-.38.32A1.62,1.62,0,0,1,88.56,33.71Z"/><path class="cls-1" d="M91.75,33.71a1.28,1.28,0,0,1-.93-.34,1.35,1.35,0,0,1-.35-1V30.66h.44v1.69a1,1,0,0,0,.22.74,1,1,0,0,0,1.26,0,1,1,0,0,0,.23-.74V30.66H93v1.71a1.39,1.39,0,0,1-.34,1A1.31,1.31,0,0,1,91.75,33.71Z"/><path class="cls-1" d="M94.06,33.67v-3h.43V33.3h1.64v.37Z"/><path class="cls-1" d="M97.37,33.67V31h-1v-.37h2.51V31h-1v2.64Z"/><path class="cls-1" d="M100.82,33.71a1.75,1.75,0,0,1-.65-.12,1.72,1.72,0,0,1-.51-.33,1.5,1.5,0,0,1-.34-.48,1.64,1.64,0,0,1,0-1.23,1.5,1.5,0,0,1,.34-.48,1.63,1.63,0,0,1,1.16-.45,1.69,1.69,0,0,1,.64.12,1.44,1.44,0,0,1,.84.81,1.64,1.64,0,0,1,0,1.23,1.44,1.44,0,0,1-.84.81A1.69,1.69,0,0,1,100.82,33.71Zm0-.39a1.4,1.4,0,0,0,.47-.08,1.05,1.05,0,0,0,.37-.25,1,1,0,0,0,.25-.36,1.18,1.18,0,0,0,.09-.46,1.15,1.15,0,0,0-.34-.83,1.05,1.05,0,0,0-.37-.25,1.4,1.4,0,0,0-.47-.08,1.39,1.39,0,0,0-.46.08,1.09,1.09,0,0,0-.38.25,1.34,1.34,0,0,0-.25.37,1.14,1.14,0,0,0-.08.46,1.17,1.17,0,0,0,.08.46A1.16,1.16,0,0,0,100,33a1.09,1.09,0,0,0,.38.25A1.39,1.39,0,0,0,100.81,33.32Z"/><path class="cls-1" d="M103.22,33.67v-3h1.18a1.69,1.69,0,0,1,.68.12,1,1,0,0,1,.44.37,1,1,0,0,1,.15.56,1,1,0,0,1-.15.56.93.93,0,0,1-.44.36,1.69,1.69,0,0,1-.68.12h-.94l.2-.19v1.11Zm.44-1.07-.2-.21h.93a1,1,0,0,0,.63-.18.64.64,0,0,0,.22-.5.62.62,0,0,0-.22-.5,1,1,0,0,0-.63-.18h-.93l.2-.21Zm1.59,1.07-.77-1.09h.46l.78,1.09Z"/><path class="cls-1" d="M106.51,33.67v-3h.43v3Z"/><path class="cls-1" d="M107.53,33.67l1.37-3h.43l1.38,3h-.46L109,30.9h.17L108,33.67Zm.58-.75.12-.35h1.71l.12.35Z"/><path class="cls-1" d="M113.4,33.71a1.54,1.54,0,0,1-.55-.1.89.89,0,0,1-.37-.28.6.6,0,0,1-.14-.41.78.78,0,0,1,.09-.37,1.07,1.07,0,0,1,.29-.32,2.94,2.94,0,0,1,.52-.33,3.45,3.45,0,0,0,.42-.24,1,1,0,0,0,.21-.19.39.39,0,0,0,.06-.2.3.3,0,0,0-.1-.24.45.45,0,0,0-.3-.1.46.46,0,0,0-.32.11.31.31,0,0,0-.12.26.45.45,0,0,0,0,.16.94.94,0,0,0,.11.17,2.16,2.16,0,0,0,.22.23l1.6,1.58-.24.28L113.11,32a2.6,2.6,0,0,1-.24-.27,1,1,0,0,1-.12-.23.62.62,0,0,1,0-.23.63.63,0,0,1,.1-.36.61.61,0,0,1,.29-.23.94.94,0,0,1,.43-.09,1,1,0,0,1,.4.08.61.61,0,0,1,.26.21.64.64,0,0,1,.09.34.69.69,0,0,1-.08.32,1,1,0,0,1-.27.28,2.86,2.86,0,0,1-.51.3,2.57,2.57,0,0,0-.4.25.71.71,0,0,0-.21.22.55.55,0,0,0-.07.25.38.38,0,0,0,.09.25.55.55,0,0,0,.24.17,1,1,0,0,0,.35.06,1.15,1.15,0,0,0,.53-.12,1.17,1.17,0,0,0,.39-.38,1.87,1.87,0,0,0,.23-.62l.33.11a1.82,1.82,0,0,1-.29.74,1.43,1.43,0,0,1-.52.46A1.56,1.56,0,0,1,113.4,33.71Z"/><path class="cls-1" d="M117,33.67v-3h.43v3Z"/><path class="cls-1" d="M118.49,33.67v-3h.35l2,2.47h-.19V30.66h.43v3h-.35l-2-2.47h.19v2.47Z"/><path class="cls-1" d="M123,33.67l-1.33-3h.47l1.22,2.78h-.26l1.23-2.78h.43l-1.33,3Z"/><path class="cls-1" d="M125.79,33.3h1.77v.37h-2.2v-3h2.14V31h-1.71Zm0-1.34h1.56v.36h-1.56Z"/><path class="cls-1" d="M129.28,33.71a2.08,2.08,0,0,1-.66-.11,1.39,1.39,0,0,1-.5-.27l.16-.34a1.33,1.33,0,0,0,.44.25,1.54,1.54,0,0,0,.56.1,1.27,1.27,0,0,0,.43-.06.5.5,0,0,0,.24-.17.4.4,0,0,0,.08-.23.3.3,0,0,0-.1-.25.72.72,0,0,0-.27-.16,2.47,2.47,0,0,0-.35-.1l-.39-.1a1.5,1.5,0,0,1-.36-.15.78.78,0,0,1-.27-.24.75.75,0,0,1-.1-.39.8.8,0,0,1,.13-.43.87.87,0,0,1,.38-.32,1.54,1.54,0,0,1,.65-.12,2.33,2.33,0,0,1,.53.07,1.86,1.86,0,0,1,.45.2l-.14.35a1.33,1.33,0,0,0-.42-.19,1.52,1.52,0,0,0-.42-.06,1,1,0,0,0-.42.07.55.55,0,0,0-.24.17.4.4,0,0,0-.07.24.32.32,0,0,0,.1.25.61.61,0,0,0,.26.15l.36.1.39.11a1.42,1.42,0,0,1,.36.14.67.67,0,0,1,.36.63.79.79,0,0,1-.12.42.9.9,0,0,1-.39.32A1.56,1.56,0,0,1,129.28,33.71Z"/><path class="cls-1" d="M131.83,33.67V31h-1v-.37h2.5V31h-1v2.64Z"/><path class="cls-1" d="M133.9,33.67v-3h.44v3Z"/><path class="cls-1" d="M135.38,33.67v-3h.36l1.36,2.28h-.19l1.34-2.28h.35v3h-.42V31.31h.1l-1.2,2h-.2l-1.2-2h.11v2.36Z"/><path class="cls-1" d="M140.09,33.3h1.76v.37h-2.2v-3h2.14V31h-1.7Zm0-1.34h1.56v.36h-1.56Z"/><path class="cls-1" d="M142.69,33.67v-3h.36l2,2.47h-.18V30.66h.43v3h-.36l-2-2.47h.19v2.47Z"/><path class="cls-1" d="M147,33.67V31h-1v-.37h2.5V31h-1v2.64Z"/><path class="cls-1" d="M150.39,33.71a1.69,1.69,0,0,1-.64-.12,1.5,1.5,0,0,1-.51-.33,1.36,1.36,0,0,1-.34-.48,1.64,1.64,0,0,1,0-1.23,1.36,1.36,0,0,1,.34-.48,1.5,1.5,0,0,1,.51-.33,1.77,1.77,0,0,1,1.28,0,1.34,1.34,0,0,1,.51.32,1.39,1.39,0,0,1,.34.49,1.64,1.64,0,0,1,0,1.23,1.39,1.39,0,0,1-.34.49,1.34,1.34,0,0,1-.51.32A1.66,1.66,0,0,1,150.39,33.71Zm0-.39a1.45,1.45,0,0,0,.47-.08,1.2,1.2,0,0,0,.62-.61,1.17,1.17,0,0,0,.08-.46,1.14,1.14,0,0,0-.08-.46,1.34,1.34,0,0,0-.25-.37,1.15,1.15,0,0,0-.37-.25,1.42,1.42,0,0,0-.94,0,1.05,1.05,0,0,0-.37.25,1.15,1.15,0,0,0-.34.83,1.18,1.18,0,0,0,.09.46,1,1,0,0,0,.25.36,1.05,1.05,0,0,0,.37.25A1.45,1.45,0,0,0,150.39,33.32Z"/><path class="cls-1" d="M153.68,33.71a2.08,2.08,0,0,1-.66-.11,1.39,1.39,0,0,1-.5-.27l.16-.34a1.33,1.33,0,0,0,.44.25,1.54,1.54,0,0,0,.56.1,1.27,1.27,0,0,0,.43-.06.5.5,0,0,0,.24-.17.4.4,0,0,0,.08-.23.3.3,0,0,0-.1-.25.72.72,0,0,0-.27-.16,2.47,2.47,0,0,0-.35-.1l-.39-.1a1.5,1.5,0,0,1-.36-.15.78.78,0,0,1-.27-.24.75.75,0,0,1-.1-.39.8.8,0,0,1,.13-.43.87.87,0,0,1,.38-.32,1.54,1.54,0,0,1,.65-.12,2.33,2.33,0,0,1,.53.07,1.86,1.86,0,0,1,.45.2l-.14.35a1.33,1.33,0,0,0-.42-.19,1.52,1.52,0,0,0-.42-.06,1,1,0,0,0-.42.07.61.61,0,0,0-.24.17.4.4,0,0,0-.07.24.32.32,0,0,0,.1.25.61.61,0,0,0,.26.15l.36.1.39.11a1.42,1.42,0,0,1,.36.14.67.67,0,0,1,.36.63.79.79,0,0,1-.12.42.9.9,0,0,1-.39.32A1.56,1.56,0,0,1,153.68,33.71Z"/><path class="cls-1" d="M155.4,34.31l.22-.87,0,.25a.32.32,0,0,1-.21-.08.32.32,0,0,1,0-.42.3.3,0,0,1,.41,0,.32.32,0,0,1,.08.21.19.19,0,0,1,0,.08.44.44,0,0,1,0,.1s0,.08,0,.13l-.21.6Z"/><path class="cls-1" d="M158.05,33.67v-3h.43V33.3h1.64v.37Z"/><path class="cls-1" d="M160.76,33.67v-3H162a1.82,1.82,0,0,1,.86.19,1.27,1.27,0,0,1,.57.53,1.57,1.57,0,0,1,0,1.57,1.27,1.27,0,0,1-.57.53,1.82,1.82,0,0,1-.86.19Zm.43-.37H162a1.33,1.33,0,0,0,.65-.15,1.08,1.08,0,0,0,.43-.39,1.26,1.26,0,0,0,0-1.19,1.08,1.08,0,0,0-.43-.39A1.33,1.33,0,0,0,162,31h-.82Z"/><path class="cls-1" d="M164,33.67l1.37-3h.43l1.38,3h-.46l-1.22-2.77h.17l-1.22,2.77Zm.59-.75.11-.35h1.71l.12.35Z"/><path class="cls-2" d="M84.78,23.65a2.44,2.44,0,0,1-.06.55,2.88,2.88,0,0,1-.79,1.49,2.92,2.92,0,0,1-1.6.81,3.4,3.4,0,0,1-.45,0A2.88,2.88,0,0,1,79,23.71v-.06a1.93,1.93,0,0,1,0-.24,2.87,2.87,0,0,1,.84-1.79.93.93,0,0,1,.18-.16,2.84,2.84,0,0,1,1.86-.68,2.89,2.89,0,0,1,2.05.84,2.56,2.56,0,0,1,.36.44A2.82,2.82,0,0,1,84.78,23.65Z"/><rect class="cls-1" x="53.88" y="4.9" width="1.07" height="30.36"/><path class="cls-1" d="M22.91,29.22a12.85,12.85,0,0,1-5.43,3.25,13.12,13.12,0,0,1-13-2.84A12.66,12.66,0,0,1,.11,21.16,44.73,44.73,0,0,1,0,16.67C0,12.46,0,0,0,0L5.51.5s.06,14,0,19a8,8,0,0,0,6.77,8,7.73,7.73,0,0,0,7.59-3.12l.27-.36A15.77,15.77,0,0,0,22.91,29.22Z"/><path class="cls-3" d="M40.92,27.56Z"/><path class="cls-4" d="M49.68,27.56v5.52H40.09c-1.75,0-3.51.05-5.25-.09a12.72,12.72,0,0,1-8.35-4.08,13.24,13.24,0,0,1-3.76-9.3,8,8,0,0,0-8-8H10V6.1h.53c1.47,0,2.95,0,4.41,0a13.22,13.22,0,0,1,11.49,6.82,12.44,12.44,0,0,1,1.77,6.48,8,8,0,0,0,6.13,7.92,9.38,9.38,0,0,0,1.9.22c1.27,0,2.54,0,3.82,0Z"/><path class="cls-5" d="M40.84,33.08h0Z"/><path class="cls-1" d="M51,19.36a13.77,13.77,0,0,0-.45-3.26A13.46,13.46,0,0,0,31.06,7.74a12.43,12.43,0,0,0-3,2.22,15.69,15.69,0,0,1,2.76,5.24l.27-.34a7.79,7.79,0,0,1,7.72-3.13,8,8,0,0,1,6.64,7.93v4.81H51C51,22.59,51,20.75,51,19.36Z"/></g></g></svg>