<svg xmlns="http://www.w3.org/2000/svg" xmlns:xlink="http://www.w3.org/1999/xlink" viewBox="0 0 166.98 35.12"><defs><style>.cls-1{fill:#1d1d1b;}.cls-2{fill:url(#Gradiente_sem_nome_29);}.cls-3{fill:#e30613;}.cls-4{fill:url(#Gradiente_sem_nome_29-2);}</style><linearGradient id="Gradiente_sem_nome_29" x1="78.92" y1="23.51" x2="84.7" y2="23.51" gradientUnits="userSpaceOnUse"><stop offset="0.01" stop-color="#be1622"/><stop offset="0.02" stop-color="#c9111e"/><stop offset="0.06" stop-color="#d80b18"/><stop offset="0.1" stop-color="#e00714"/><stop offset="0.16" stop-color="#e30613"/><stop offset="0.21" stop-color="#d50c19"/><stop offset="0.29" stop-color="#c41320"/><stop offset="0.35" stop-color="#be1622"/><stop offset="0.71" stop-color="#e30613"/><stop offset="0.85" stop-color="#be1622"/><stop offset="0.99" stop-color="#e30613"/></linearGradient><linearGradient id="Gradiente_sem_nome_29-2" x1="10.03" y1="19.45" x2="49.61" y2="19.45" xlink:href="#Gradiente_sem_nome_29"/></defs><g id="Camada_2" data-name="Camada 2"><g id="Camada_1-2" data-name="Camada 1"><path class="cls-1" d="M58.67,26.39v-21H69.52q4.2,0,6.25,1.52a4.7,4.7,0,0,1,2.06,4A4.86,4.86,0,0,1,77,13.7a5.53,5.53,0,0,1-2.43,1.9,9.38,9.38,0,0,1-3.76.69l.57-1.41a10.88,10.88,0,0,1,4,.66,5.8,5.8,0,0,1,2.61,2,5.2,5.2,0,0,1,.94,3.12,4.86,4.86,0,0,1-2.22,4.25q-2.23,1.51-6.55,1.52Zm6-4.36h4.92a4,4,0,0,0,2.28-.52,1.77,1.77,0,0,0,.77-1.58,1.73,1.73,0,0,0-.77-1.56,4.14,4.14,0,0,0-2.28-.51H64.29V13.68h4.44a4,4,0,0,0,2.2-.49,1.68,1.68,0,0,0,.74-1.49,1.68,1.68,0,0,0-.74-1.49,4,4,0,0,0-2.2-.49h-4Z"/><path class="cls-1" d="M85.2,26.39l9.3-21h6l9.3,21h-6.34l-7.22-18h2.38L91.42,26.39Zm5.14-4,1.57-4.47h10.24l1.6,4.47Z"/><path class="cls-1" d="M110,26.39v-21h6.14V21.58h10v4.81Z"/><path class="cls-1" d="M133.08,26.39H127v-21H143.6v4.72H133.08Zm-.45-11.84h9.67v4.69h-9.67Z"/><path class="cls-1" d="M142.33,26.39l9.3-21h6l9.31,21h-6.34l-7.23-18h2.39l-7.25,18.05Zm5.13-4L149,17.89h10.25l1.6,4.47Z"/><path class="cls-2" d="M84.7,23.51a2.5,2.5,0,0,1,0,.55,3,3,0,0,1-.56,1.23,2.73,2.73,0,0,1-.23.25,2.83,2.83,0,0,1-1.6.81,2.28,2.28,0,0,1-.45,0,2.86,2.86,0,0,1-1.72-.57,2.83,2.83,0,0,1-1.17-2.25v-.06a1.93,1.93,0,0,1,0-.24,2.78,2.78,0,0,1,.83-1.79l.18-.17a2.9,2.9,0,0,1,3.92.17,3.13,3.13,0,0,1,.36.44A2.79,2.79,0,0,1,84.7,23.51Z"/><path d="M22.88,29a12.71,12.71,0,0,1-5.43,3.23A13.15,13.15,0,0,1,4.5,29.42,12.53,12.53,0,0,1,.11,21,44.13,44.13,0,0,1,0,16.55C0,12.37,0,0,0,0L5.5.49s.06,13.89,0,18.83a8,8,0,0,0,6.75,7.94,7.75,7.75,0,0,0,7.58-3.11l.28-.35A15.38,15.38,0,0,0,22.88,29Z"/><path class="cls-3" d="M40.87,27.37Z"/><path class="cls-4" d="M49.61,27.37v5.47H40c-1.75,0-3.51,0-5.24-.09a12.72,12.72,0,0,1-8.34-4,13.13,13.13,0,0,1-3.76-9.24,8,8,0,0,0-8-7.94H10V6.05h.53c1.47,0,2.94,0,4.4,0a13.26,13.26,0,0,1,11.48,6.78,12.36,12.36,0,0,1,1.76,6.44,8,8,0,0,0,6.13,7.85,10.06,10.06,0,0,0,1.89.23c1.27,0,2.53,0,3.82,0Z"/><path class="cls-3" d="M40.78,32.84h0Z"/><path d="M50.89,19.22A13.68,13.68,0,0,0,50.44,16,13.46,13.46,0,0,0,31,7.68a12.67,12.67,0,0,0-3,2.21,15.67,15.67,0,0,1,2.75,5.2l.27-.33a7.77,7.77,0,0,1,7.7-3.11,7.93,7.93,0,0,1,6.64,7.87c0,1.29,0,3,0,4.77h5.52C50.91,22.43,50.9,20.61,50.89,19.22Z"/><rect x="53.8" y="4.76" width="1.07" height="30.36"/></g></g></svg>