<svg xmlns="http://www.w3.org/2000/svg" xmlns:xlink="http://www.w3.org/1999/xlink" viewBox="0 0 167.12 35.12"><defs><style>.cls-1{fill:#e30613;}.cls-2{fill:url(#Gradiente_sem_nome_29);}.cls-3{fill:#1d1d1b;}.cls-4{fill:url(#Gradiente_sem_nome_29-2);}</style><linearGradient id="Gradiente_sem_nome_29" x1="10.03" y1="19.45" x2="49.61" y2="19.45" gradientUnits="userSpaceOnUse"><stop offset="0.01" stop-color="#be1622"/><stop offset="0.02" stop-color="#c9111e"/><stop offset="0.06" stop-color="#d80b18"/><stop offset="0.1" stop-color="#e00714"/><stop offset="0.16" stop-color="#e30613"/><stop offset="0.21" stop-color="#d50c19"/><stop offset="0.29" stop-color="#c41320"/><stop offset="0.35" stop-color="#be1622"/><stop offset="0.71" stop-color="#e30613"/><stop offset="0.85" stop-color="#be1622"/><stop offset="0.99" stop-color="#e30613"/></linearGradient><linearGradient id="Gradiente_sem_nome_29-2" x1="78.92" y1="23.51" x2="84.71" y2="23.51" xlink:href="#Gradiente_sem_nome_29"/></defs><g id="Camada_2" data-name="Camada 2"><g id="Camada_1-2" data-name="Camada 1"><path d="M22.88,29a12.71,12.71,0,0,1-5.43,3.23A13.15,13.15,0,0,1,4.5,29.42,12.53,12.53,0,0,1,.11,21,44.13,44.13,0,0,1,0,16.55C0,12.37,0,0,0,0L5.5.49s.06,13.89,0,18.83a8,8,0,0,0,6.75,7.94,7.75,7.75,0,0,0,7.58-3.11l.28-.35A15.38,15.38,0,0,0,22.88,29Z"/><path class="cls-1" d="M40.87,27.37Z"/><path class="cls-2" d="M49.61,27.37v5.47H40c-1.75,0-3.51,0-5.24-.09a12.72,12.72,0,0,1-8.34-4,13.13,13.13,0,0,1-3.76-9.24,8,8,0,0,0-8-7.94H10V6.05h.53c1.47,0,2.94,0,4.4,0a13.26,13.26,0,0,1,11.48,6.78,12.36,12.36,0,0,1,1.76,6.44,8,8,0,0,0,6.13,7.85,10.06,10.06,0,0,0,1.89.23c1.27,0,2.53,0,3.82,0Z"/><path class="cls-1" d="M40.78,32.84h0Z"/><path d="M50.89,19.22A13.68,13.68,0,0,0,50.44,16,13.46,13.46,0,0,0,31,7.68a12.67,12.67,0,0,0-3,2.21,15.67,15.67,0,0,1,2.75,5.2l.27-.33a7.77,7.77,0,0,1,7.7-3.11,7.93,7.93,0,0,1,6.64,7.87c0,1.29,0,3,0,4.77h5.52C50.91,22.43,50.9,20.61,50.89,19.22Z"/><path class="cls-3" d="M58.68,26.38v-21H69.53c2.8,0,4.88.5,6.25,1.52a4.68,4.68,0,0,1,2,4A4.9,4.9,0,0,1,77,13.69a5.67,5.67,0,0,1-2.43,1.91,9.38,9.38,0,0,1-3.76.69l.57-1.41a10.82,10.82,0,0,1,4,.66A5.76,5.76,0,0,1,78,17.49a5.22,5.22,0,0,1,.93,3.13,4.86,4.86,0,0,1-2.22,4.25q-2.22,1.51-6.54,1.51Zm6-4.35h4.93a4.06,4.06,0,0,0,2.28-.53,1.78,1.78,0,0,0,.77-1.57,1.78,1.78,0,0,0-.77-1.57,4.16,4.16,0,0,0-2.28-.51H64.3V13.68h4.44a3.94,3.94,0,0,0,2.19-.5,1.67,1.67,0,0,0,.74-1.48,1.68,1.68,0,0,0-.74-1.49,3.94,3.94,0,0,0-2.19-.5h-4Z"/><path class="cls-3" d="M85.21,26.38l9.3-21h6l9.31,21h-6.35l-7.22-18h2.39l-7.25,18Zm5.13-4,1.57-4.48h10.24l1.61,4.48Z"/><path class="cls-3" d="M110,26.38v-21h6.13V21.58h10v4.8Z"/><path class="cls-3" d="M133.09,26.38H127v-21H143.6v4.71H133.09Zm-.45-11.83h9.66v4.69h-9.66Z"/><path class="cls-3" d="M142.33,26.38l9.31-21h6l9.31,21h-6.35l-7.22-18h2.39l-7.25,18Zm5.14-4L149,17.88h10.24l1.6,4.48Z"/><path class="cls-3" d="M58.87,33.53v-3h1.35a1.35,1.35,0,0,1,.81.21.67.67,0,0,1,.28.57.79.79,0,0,1-.11.42.68.68,0,0,1-.3.25.87.87,0,0,1-.4.09l.08-.12A1,1,0,0,1,61,32a.66.66,0,0,1,.31.26.75.75,0,0,1,.12.43.7.7,0,0,1-.29.6,1.48,1.48,0,0,1-.87.22Zm.43-.35h1a1,1,0,0,0,.55-.12.41.41,0,0,0,.19-.38.4.4,0,0,0-.19-.38.93.93,0,0,0-.55-.13h-1v-.34h.93a.92.92,0,0,0,.51-.12.42.42,0,0,0,.18-.37A.4.4,0,0,0,60.7,31a.92.92,0,0,0-.51-.12H59.3Z"/><path class="cls-3" d="M62.32,33.55a.32.32,0,0,1-.21-.08.29.29,0,0,1-.08-.22.28.28,0,0,1,.08-.21.32.32,0,0,1,.21-.08.3.3,0,0,1,.2.08.29.29,0,0,1,.09.21.29.29,0,0,1-.09.22A.3.3,0,0,1,62.32,33.55Z"/><path class="cls-3" d="M62.94,33.53l1.37-3h.43l1.38,3h-.46l-1.22-2.78h.17l-1.22,2.78Zm.59-.76.11-.34h1.71l.12.34Z"/><path class="cls-3" d="M66.71,33.53v-3h.43v2.64h1.64v.38Z"/><path class="cls-3" d="M69.85,33.53h-.43v-3h2.14v.38H69.85Zm0-1.59h1.56v.37H69.81Z"/><path class="cls-3" d="M71.84,33.53l1.38-3h.43l1.37,3h-.45l-1.23-2.78h.18l-1.23,2.78Zm.59-.76.12-.34h1.7l.13.34Z"/><path class="cls-3" d="M78.27,33.56a1.87,1.87,0,0,1-.64-.11,1.6,1.6,0,0,1-.51-.33,1.55,1.55,0,0,1,0-2.2,1.72,1.72,0,0,1,.51-.33,1.91,1.91,0,0,1,.64-.11,1.71,1.71,0,0,1,.65.12,1.26,1.26,0,0,1,.5.35l-.28.27a1.05,1.05,0,0,0-.39-.27,1.18,1.18,0,0,0-.46-.09,1.19,1.19,0,0,0-.47.09,1.12,1.12,0,0,0-.38.24,1,1,0,0,0-.25.37,1.22,1.22,0,0,0,0,.92,1.05,1.05,0,0,0,.25.37,1.12,1.12,0,0,0,.38.24,1.19,1.19,0,0,0,.47.09,1.18,1.18,0,0,0,.46-.09,1.05,1.05,0,0,0,.39-.27l.28.27a1.37,1.37,0,0,1-.5.35A1.75,1.75,0,0,1,78.27,33.56Z"/><path class="cls-3" d="M81.55,33.56a1.66,1.66,0,0,1-.64-.12,1.46,1.46,0,0,1-.52-.32,1.72,1.72,0,0,1-.34-.49,1.61,1.61,0,0,1,0-1.22,1.72,1.72,0,0,1,.34-.49,1.52,1.52,0,0,1,.51-.32,1.71,1.71,0,0,1,.65-.12,1.91,1.91,0,0,1,.64.11,1.72,1.72,0,0,1,.51.33,1.37,1.37,0,0,1,.33.49,1.51,1.51,0,0,1,.12.61,1.59,1.59,0,0,1-.12.62,1.42,1.42,0,0,1-.33.48,1.72,1.72,0,0,1-.51.33A1.91,1.91,0,0,1,81.55,33.56Zm0-.38a1.19,1.19,0,0,0,.47-.09,1.23,1.23,0,0,0,.38-.24,1.31,1.31,0,0,0,.24-.37,1.22,1.22,0,0,0,0-.92,1.31,1.31,0,0,0-.24-.37A1.23,1.23,0,0,0,82,31a1.19,1.19,0,0,0-.47-.09,1.18,1.18,0,0,0-.46.09,1.36,1.36,0,0,0-.38.24,1.12,1.12,0,0,0-.24.37,1.22,1.22,0,0,0,0,.92,1.12,1.12,0,0,0,.24.37,1.36,1.36,0,0,0,.38.24A1.18,1.18,0,0,0,81.54,33.18Z"/><path class="cls-3" d="M84,33.53v-3h.36l2,2.48h-.18V30.51h.43v3H86.2l-2-2.48h.19v2.48Z"/><path class="cls-3" d="M88.49,33.56a1.83,1.83,0,0,1-.66-.11,1.39,1.39,0,0,1-.5-.27l.16-.33a1.54,1.54,0,0,0,.44.25,1.77,1.77,0,0,0,.56.09,1.27,1.27,0,0,0,.43-.06.48.48,0,0,0,.24-.16.41.41,0,0,0,.08-.24.36.36,0,0,0-.1-.25.87.87,0,0,0-.27-.15,1.79,1.79,0,0,0-.35-.1l-.4-.1a1.94,1.94,0,0,1-.36-.15.77.77,0,0,1-.26-.25.75.75,0,0,1-.1-.39.73.73,0,0,1,.13-.43.85.85,0,0,1,.38-.31,1.54,1.54,0,0,1,.65-.12,1.93,1.93,0,0,1,.53.07,1.32,1.32,0,0,1,.45.2l-.15.34A1.28,1.28,0,0,0,89,30.9a1.51,1.51,0,0,0-.42,0,1.25,1.25,0,0,0-.42.06.5.5,0,0,0-.24.17.4.4,0,0,0-.07.24.34.34,0,0,0,.1.26.93.93,0,0,0,.26.15l.36.1.39.1a1.94,1.94,0,0,1,.36.15.67.67,0,0,1,.26.24.65.65,0,0,1,.1.38.8.8,0,0,1-.12.43,1,1,0,0,1-.39.31A1.56,1.56,0,0,1,88.49,33.56Z"/><path class="cls-3" d="M91.69,33.56a1.26,1.26,0,0,1-.94-.34,1.34,1.34,0,0,1-.34-1V30.51h.43v1.7a1,1,0,0,0,.22.73,1,1,0,0,0,1.27,0,1.06,1.06,0,0,0,.22-.73v-1.7H93v1.72a1.34,1.34,0,0,1-.34,1A1.26,1.26,0,0,1,91.69,33.56Z"/><path class="cls-3" d="M94,33.53v-3h.44v2.64h1.64v.38Z"/><path class="cls-3" d="M97.31,33.53V30.89h-1v-.38h2.5v.38h-1v2.64Z"/><path class="cls-3" d="M100.75,33.56a1.69,1.69,0,0,1-.64-.12,1.46,1.46,0,0,1-.52-.32,1.51,1.51,0,0,1-.33-.49,1.61,1.61,0,0,1,0-1.22,1.51,1.51,0,0,1,.33-.49,1.46,1.46,0,0,1,.52-.32,1.66,1.66,0,0,1,.64-.12,1.91,1.91,0,0,1,.64.11,1.5,1.5,0,0,1,.51.33,1.39,1.39,0,0,1,.34.49,1.51,1.51,0,0,1,.12.61,1.59,1.59,0,0,1-.12.62,1.45,1.45,0,0,1-.34.48,1.5,1.5,0,0,1-.51.33A1.91,1.91,0,0,1,100.75,33.56Zm0-.38a1.23,1.23,0,0,0,.47-.09,1.31,1.31,0,0,0,.37-.24,1.12,1.12,0,0,0,.24-.37,1.22,1.22,0,0,0,0-.92,1.12,1.12,0,0,0-.24-.37,1.31,1.31,0,0,0-.37-.24,1.23,1.23,0,0,0-.47-.09,1.2,1.2,0,0,0-.84.33,1.17,1.17,0,0,0,0,1.66,1.2,1.2,0,0,0,.84.33Z"/><path class="cls-3" d="M103.16,33.53v-3h1.18a1.75,1.75,0,0,1,.68.13.9.9,0,0,1,.43.36,1,1,0,0,1,.15.56,1.05,1.05,0,0,1-.15.57.94.94,0,0,1-.43.35,1.59,1.59,0,0,1-.68.13h-1l.2-.2v1.12Zm.43-1.08-.2-.21h.94a.94.94,0,0,0,.62-.18.58.58,0,0,0,.22-.5.61.61,0,0,0-.22-.5,1,1,0,0,0-.62-.17h-.94l.2-.22Zm1.59,1.08-.77-1.1h.46l.78,1.1Z"/><path class="cls-3" d="M106.44,33.53v-3h.43v3Z"/><path class="cls-3" d="M107.46,33.53l1.37-3h.43l1.38,3h-.46L109,30.75h.17l-1.22,2.78Zm.59-.76.11-.34h1.71l.12.34Z"/><path class="cls-3" d="M113.33,33.56a1.3,1.3,0,0,1-.54-.1.9.9,0,0,1-.38-.27.68.68,0,0,1-.14-.41.75.75,0,0,1,.09-.37,1.23,1.23,0,0,1,.29-.33,3.34,3.34,0,0,1,.53-.32,4.11,4.11,0,0,0,.41-.24.81.81,0,0,0,.21-.2.36.36,0,0,0,.06-.2.3.3,0,0,0-.1-.24.45.45,0,0,0-.3-.09.47.47,0,0,0-.32.1.36.36,0,0,0-.11.26.41.41,0,0,0,0,.16.62.62,0,0,0,.1.17,2.16,2.16,0,0,0,.22.23L115,33.3l-.23.27-1.7-1.68a1.79,1.79,0,0,1-.24-.27.89.89,0,0,1-.13-.23.85.85,0,0,1,0-.23.68.68,0,0,1,.1-.35.76.76,0,0,1,.29-.24,1.14,1.14,0,0,1,.43-.08,1,1,0,0,1,.4.07.56.56,0,0,1,.26.22.59.59,0,0,1,.09.34.55.55,0,0,1-.08.31,1,1,0,0,1-.27.29,3.84,3.84,0,0,1-.5.3,2.34,2.34,0,0,0-.41.24.73.73,0,0,0-.21.23.48.48,0,0,0-.06.24.47.47,0,0,0,.08.26.61.61,0,0,0,.24.17,1,1,0,0,0,.36.06,1.11,1.11,0,0,0,.52-.13,1,1,0,0,0,.39-.37,1.63,1.63,0,0,0,.23-.62l.34.1a2,2,0,0,1-.3.74,1.43,1.43,0,0,1-.52.46A1.41,1.41,0,0,1,113.33,33.56Z"/><path class="cls-3" d="M116.94,33.53v-3h.43v3Z"/><path class="cls-3" d="M118.42,33.53v-3h.36l2,2.48h-.19V30.51H121v3h-.36l-2-2.48h.18v2.48Z"/><path class="cls-3" d="M123,33.53l-1.34-3h.47l1.23,2.78H123l1.23-2.78h.43l-1.32,3Z"/><path class="cls-3" d="M125.73,33.15h1.76v.38h-2.2v-3h2.14v.38h-1.7Zm0-1.34h1.56v.37h-1.56Z"/><path class="cls-3" d="M129.21,33.56a1.83,1.83,0,0,1-.66-.11,1.48,1.48,0,0,1-.5-.27l.16-.33a1.6,1.6,0,0,0,.45.25,1.67,1.67,0,0,0,.55.09,1.27,1.27,0,0,0,.43-.06.57.57,0,0,0,.25-.16.4.4,0,0,0,.07-.24.32.32,0,0,0-.1-.25.81.81,0,0,0-.26-.15,1.89,1.89,0,0,0-.36-.1l-.39-.1a1.94,1.94,0,0,1-.36-.15.63.63,0,0,1-.26-.25.67.67,0,0,1-.1-.39.8.8,0,0,1,.12-.43.85.85,0,0,1,.38-.31,1.56,1.56,0,0,1,.66-.12,1.86,1.86,0,0,1,.52.07,1.32,1.32,0,0,1,.45.2l-.14.34a1.38,1.38,0,0,0-.41-.19,1.6,1.6,0,0,0-.42,0,1.25,1.25,0,0,0-.42.06.5.5,0,0,0-.24.17.41.41,0,0,0-.08.24.38.38,0,0,0,.1.26.87.87,0,0,0,.27.15l.35.1.4.1a1.94,1.94,0,0,1,.36.15.85.85,0,0,1,.26.24.74.74,0,0,1,.1.38.73.73,0,0,1-.13.43.83.83,0,0,1-.39.31A1.56,1.56,0,0,1,129.21,33.56Z"/><path class="cls-3" d="M131.76,33.53V30.89h-1v-.38h2.51v.38h-1v2.64Z"/><path class="cls-3" d="M133.84,33.53v-3h.43v3Z"/><path class="cls-3" d="M135.32,33.53v-3h.35L137,32.79h-.19l1.34-2.28h.36v3h-.41V31.16h.1l-1.19,2h-.2l-1.21-2h.11v2.37Z"/><path class="cls-3" d="M140,33.15h1.77v.38h-2.2v-3h2.14v.38H140Zm0-1.34h1.56v.37H140Z"/><path class="cls-3" d="M142.63,33.53v-3H143L145,33h-.18V30.51h.43v3h-.35l-2-2.48h.19v2.48Z"/><path class="cls-3" d="M146.88,33.53V30.89h-1v-.38h2.51v.38h-1v2.64Z"/><path class="cls-3" d="M150.33,33.56a1.71,1.71,0,0,1-.65-.12,1.34,1.34,0,0,1-.51-.32,1.53,1.53,0,0,1,0-2.2,1.34,1.34,0,0,1,.51-.32,1.71,1.71,0,0,1,.65-.12,1.91,1.91,0,0,1,.64.11,1.72,1.72,0,0,1,.51.33,1.53,1.53,0,0,1,.45,1.1,1.49,1.49,0,0,1-.45,1.1,1.72,1.72,0,0,1-.51.33A1.91,1.91,0,0,1,150.33,33.56Zm0-.38a1.2,1.2,0,0,0,.84-.33,1.17,1.17,0,0,0,0-1.66,1.2,1.2,0,0,0-.84-.33,1.14,1.14,0,0,0-.46.09,1.23,1.23,0,0,0-.38.24,1.17,1.17,0,0,0,0,1.66,1.23,1.23,0,0,0,.38.24A1.14,1.14,0,0,0,150.32,33.18Z"/><path class="cls-3" d="M153.61,33.56a1.83,1.83,0,0,1-.66-.11,1.48,1.48,0,0,1-.5-.27l.16-.33a1.6,1.6,0,0,0,.45.25,1.71,1.71,0,0,0,.55.09,1.27,1.27,0,0,0,.43-.06.57.57,0,0,0,.25-.16.4.4,0,0,0,.07-.24.32.32,0,0,0-.1-.25.81.81,0,0,0-.26-.15,1.89,1.89,0,0,0-.36-.1l-.39-.1a1.94,1.94,0,0,1-.36-.15.63.63,0,0,1-.26-.25.67.67,0,0,1-.1-.39.8.8,0,0,1,.12-.43.85.85,0,0,1,.38-.31,1.56,1.56,0,0,1,.66-.12,1.86,1.86,0,0,1,.52.07,1.32,1.32,0,0,1,.45.2l-.14.34a1.38,1.38,0,0,0-.41-.19,1.6,1.6,0,0,0-.42,0,1.25,1.25,0,0,0-.42.06.5.5,0,0,0-.24.17.41.41,0,0,0-.08.24.38.38,0,0,0,.1.26.87.87,0,0,0,.27.15l.36.1.39.1a1.94,1.94,0,0,1,.36.15.85.85,0,0,1,.26.24.74.74,0,0,1,.1.38.73.73,0,0,1-.13.43.83.83,0,0,1-.39.31A1.56,1.56,0,0,1,153.61,33.56Z"/><path class="cls-3" d="M155.33,34.16l.22-.87.06.25a.28.28,0,0,1-.21-.07.29.29,0,0,1-.09-.22.29.29,0,0,1,.09-.21.28.28,0,0,1,.2-.08.25.25,0,0,1,.2.09.24.24,0,0,1,.08.2v.09l0,.09a.93.93,0,0,1,0,.13l-.2.6Z"/><path class="cls-3" d="M158,33.53v-3h.43v2.64h1.64v.38Z"/><path class="cls-3" d="M160.69,33.53v-3H162a1.9,1.9,0,0,1,.85.19,1.49,1.49,0,0,1,.58.53,1.66,1.66,0,0,1,0,1.58,1.49,1.49,0,0,1-.58.53,1.9,1.9,0,0,1-.85.19Zm.43-.38h.82a1.45,1.45,0,0,0,.65-.14,1,1,0,0,0,.43-.4,1.15,1.15,0,0,0,.15-.59,1.13,1.13,0,0,0-.15-.59,1,1,0,0,0-.43-.4,1.45,1.45,0,0,0-.65-.14h-.82Z"/><path class="cls-3" d="M163.94,33.53l1.38-3h.43l1.37,3h-.45l-1.23-2.78h.18l-1.23,2.78Zm.59-.76.12-.34h1.7l.13.34Z"/><path class="cls-4" d="M84.71,23.51a3.31,3.31,0,0,1,0,.55,2.91,2.91,0,0,1-2.4,2.29,3.15,3.15,0,0,1-.44,0,2.83,2.83,0,0,1-1.72-.56,2.87,2.87,0,0,1-1.18-2.26v0c0-.08,0-.17,0-.24a2.89,2.89,0,0,1,.84-1.8l.18-.16a2.92,2.92,0,0,1,1.87-.68,2.87,2.87,0,0,1,2,.84,3.75,3.75,0,0,1,.37.44A2.92,2.92,0,0,1,84.71,23.51Z"/><path class="cls-1" d="M40.87,27.36h0Z"/><path class="cls-1" d="M40.79,32.84h0Z"/><rect x="53.81" y="4.75" width="1.07" height="30.36"/></g></g></svg>