<svg xmlns="http://www.w3.org/2000/svg" xmlns:xlink="http://www.w3.org/1999/xlink" viewBox="0 0 80.46 52.23"><defs><style>.cls-1{fill:#e30613;}.cls-2{fill:url(#Gradiente_sem_nome_29);}</style><linearGradient id="Gradiente_sem_nome_29" x1="15.85" y1="30.91" x2="78.41" y2="30.91" gradientUnits="userSpaceOnUse"><stop offset="0.01" stop-color="#be1622"/><stop offset="0.02" stop-color="#c9111e"/><stop offset="0.06" stop-color="#d80b18"/><stop offset="0.1" stop-color="#e00714"/><stop offset="0.16" stop-color="#e30613"/><stop offset="0.21" stop-color="#d50c19"/><stop offset="0.29" stop-color="#c41320"/><stop offset="0.35" stop-color="#be1622"/><stop offset="0.71" stop-color="#e30613"/><stop offset="0.85" stop-color="#be1622"/><stop offset="0.99" stop-color="#e30613"/></linearGradient></defs><g id="Camada_2" data-name="Camada 2"><g id="Camada_1-2" data-name="Camada 1"><path d="M36.16,46.12a20.13,20.13,0,0,1-8.58,5.13C20,53.44,13.07,52,7.11,46.76A20,20,0,0,1,.17,33.4C-.06,31.06,0,28.68,0,26.31,0,19.67,0,0,0,0L8.69.79s.1,22.07,0,29.92A12.64,12.64,0,0,0,19.38,43.33c4.91.73,8.9-1.06,12-4.94l.43-.55A25,25,0,0,0,36.16,46.12Z"/><path class="cls-1" d="M64.59,43.5Z"/><path class="cls-2" d="M78.41,43.5v8.71H63.27c-2.76,0-5.53.08-8.27-.15a20,20,0,0,1-13.18-6.43A20.8,20.8,0,0,1,35.88,31a12.65,12.65,0,0,0-12.7-12.62H15.85V9.62h.84c2.32,0,4.64-.06,7,0A20.87,20.87,0,0,1,41.78,20.41a19.65,19.65,0,0,1,2.79,10.23,12.66,12.66,0,0,0,9.68,12.49,15.18,15.18,0,0,0,3,.36c2,0,4,0,6,0Z"/><path class="cls-1" d="M64.46,52.21h0Z"/><path d="M80.42,30.56a21,21,0,0,0-.7-5.16A21.25,21.25,0,0,0,49,12.21a19.79,19.79,0,0,0-4.72,3.51A25.16,25.16,0,0,1,48.67,24l.42-.53c3.13-3.95,7.2-5.73,12.18-4.94A12.57,12.57,0,0,1,71.75,31c0,2,0,4.78,0,7.59h8.72C80.46,35.66,80.45,32.76,80.42,30.56Z"/></g></g></svg>