<svg xmlns="http://www.w3.org/2000/svg" xmlns:xlink="http://www.w3.org/1999/xlink" viewBox="0 0 167.75 35.37"><defs><style>.cls-1{fill:#e30613;}.cls-2{fill:url(#Gradiente_sem_nome_29);}.cls-3{fill:#3c3c3b;}.cls-4{fill:#1d1d1b;}.cls-5{fill:none;}.cls-6{fill:url(#Gradiente_sem_nome_29-2);}</style><linearGradient id="Gradiente_sem_nome_29" x1="10.04" y1="19.58" x2="49.68" y2="19.58" gradientUnits="userSpaceOnUse"><stop offset="0.01" stop-color="#be1622"/><stop offset="0.02" stop-color="#c9111e"/><stop offset="0.06" stop-color="#d80b18"/><stop offset="0.1" stop-color="#e00714"/><stop offset="0.16" stop-color="#e30613"/><stop offset="0.21" stop-color="#d50c19"/><stop offset="0.29" stop-color="#c41320"/><stop offset="0.35" stop-color="#be1622"/><stop offset="0.71" stop-color="#e30613"/><stop offset="0.85" stop-color="#be1622"/><stop offset="0.99" stop-color="#e30613"/></linearGradient><linearGradient id="Gradiente_sem_nome_29-2" x1="74.32" y1="15.92" x2="95.02" y2="15.92" xlink:href="#Gradiente_sem_nome_29"/></defs><g id="Camada_2" data-name="Camada 2"><g id="Camada_1-2" data-name="Camada 1"><path d="M22.91,29.22a12.85,12.85,0,0,1-5.43,3.25,13.12,13.12,0,0,1-13-2.84A12.66,12.66,0,0,1,.11,21.16,44.73,44.73,0,0,1,0,16.67C0,12.46,0,0,0,0L5.51.5s.06,14,0,19a8,8,0,0,0,6.77,8,7.73,7.73,0,0,0,7.59-3.12l.27-.36A15.77,15.77,0,0,0,22.91,29.22Z"/><path class="cls-1" d="M40.92,27.56Z"/><path class="cls-2" d="M49.68,27.56v5.52H40.09c-1.75,0-3.51.05-5.25-.09a12.72,12.72,0,0,1-8.35-4.08,13.24,13.24,0,0,1-3.76-9.3,8,8,0,0,0-8-8H10V6.1h.53c1.47,0,2.95,0,4.41,0a13.22,13.22,0,0,1,11.49,6.82,12.44,12.44,0,0,1,1.77,6.48,8,8,0,0,0,6.13,7.92,9.38,9.38,0,0,0,1.9.22c1.27,0,2.54,0,3.82,0Z"/><path class="cls-1" d="M40.84,33.08h0Z"/><path d="M51,19.36a13.77,13.77,0,0,0-.45-3.26A13.46,13.46,0,0,0,31.06,7.74a12.43,12.43,0,0,0-3,2.22,15.69,15.69,0,0,1,2.76,5.24l.27-.34a7.79,7.79,0,0,1,7.72-3.13,8,8,0,0,1,6.64,7.93v4.81H51C51,22.59,51,20.75,51,19.36Z"/><path class="cls-3" d="M59.22,33.47v-3h1.36a1.29,1.29,0,0,1,.8.21.69.69,0,0,1,.29.58.76.76,0,0,1-.11.41.75.75,0,0,1-.3.26.82.82,0,0,1-.4.1l.07-.13a1.08,1.08,0,0,1,.46.09.75.75,0,0,1,.32.26.78.78,0,0,1,.12.44.69.69,0,0,1-.3.6,1.39,1.39,0,0,1-.87.22Zm.43-.35h1A1,1,0,0,0,61.2,33a.45.45,0,0,0,.19-.39.43.43,0,0,0-.19-.38,1,1,0,0,0-.55-.12h-1v-.35h.93a.84.84,0,0,0,.51-.13.45.45,0,0,0,0-.72.92.92,0,0,0-.51-.12h-.89Z"/><path class="cls-3" d="M62.68,33.49a.26.26,0,0,1-.21-.08.29.29,0,0,1-.09-.22.29.29,0,0,1,.09-.21.3.3,0,0,1,.21-.08.32.32,0,0,1,.2.08.32.32,0,0,1,.08.21.33.33,0,0,1-.08.22A.27.27,0,0,1,62.68,33.49Z"/><path class="cls-3" d="M63.3,33.47l1.37-3h.43l1.38,3H66L64.8,30.68H65l-1.22,2.79Zm.58-.76.12-.35h1.71l.12.35Z"/><path class="cls-3" d="M67.07,33.47v-3h.43v2.66h1.65v.38Z"/><path class="cls-3" d="M70.22,33.47h-.44v-3h2.14v.38h-1.7Zm0-1.6h1.57v.37H70.17Z"/><path class="cls-3" d="M72.21,33.47l1.38-3H74l1.38,3h-.46l-1.23-2.79h.18l-1.23,2.79Zm.59-.76.12-.35h1.7l.13.35Z"/><path class="cls-3" d="M77.29,33.47v-3h.43v3Z"/><path class="cls-3" d="M78.77,33.47v-3h.36l2,2.5H81v-2.5h.43v3H81L79,31h.18v2.49Z"/><path class="cls-3" d="M83.3,33.47l-1.33-3h.47l1.22,2.8H83.4l1.23-2.8h.43l-1.33,3Z"/><path class="cls-3" d="M86.09,33.09h1.76v.38h-2.2v-3h2.14v.38h-1.7Zm0-1.35h1.56v.37H86.05Z"/><path class="cls-3" d="M89.58,33.5a2.07,2.07,0,0,1-.66-.1,1.39,1.39,0,0,1-.5-.28l.16-.34A1.24,1.24,0,0,0,89,33a1.54,1.54,0,0,0,.56.1,1.27,1.27,0,0,0,.43-.06.48.48,0,0,0,.24-.16.41.41,0,0,0,.08-.24.34.34,0,0,0-.1-.26.87.87,0,0,0-.27-.15l-.35-.1-.4-.1a1.94,1.94,0,0,1-.36-.15.77.77,0,0,1-.26-.25.67.67,0,0,1-.1-.39.78.78,0,0,1,.13-.44.8.8,0,0,1,.38-.31,1.54,1.54,0,0,1,.65-.12,1.93,1.93,0,0,1,.53.07,1.54,1.54,0,0,1,.45.2l-.14.34a1.57,1.57,0,0,0-.42-.18,1.52,1.52,0,0,0-.42-.06,1.25,1.25,0,0,0-.42.06A.51.51,0,0,0,89,31a.4.4,0,0,0-.07.24.3.3,0,0,0,.1.25.68.68,0,0,0,.26.16l.36.1.39.1a1.94,1.94,0,0,1,.36.15.67.67,0,0,1,.36.63.82.82,0,0,1-.12.43,1,1,0,0,1-.39.31A1.56,1.56,0,0,1,89.58,33.5Z"/><path class="cls-3" d="M92.13,33.47V30.81h-1v-.38H93.6v.38h-1v2.66Z"/><path class="cls-3" d="M94.21,33.47v-3h.43v3Z"/><path class="cls-3" d="M95.69,33.47v-3h.36l1.36,2.3h-.19l1.34-2.3h.35v3H98.5V31.09h.1l-1.2,2h-.2l-1.2-2h.11v2.38Z"/><path class="cls-3" d="M100.4,33.09h1.77v.38H100v-3h2.14v.38H100.4Zm0-1.35h1.56v.37h-1.56Z"/><path class="cls-3" d="M103,33.47v-3h.35l2,2.5h-.19v-2.5h.44v3h-.36l-2-2.49h.18v2.49Z"/><path class="cls-3" d="M107.27,33.47V30.81h-1v-.38h2.51v.38h-1v2.66Z"/><path class="cls-3" d="M110.72,33.5a1.87,1.87,0,0,1-.64-.11,1.53,1.53,0,0,1-.86-.82,1.59,1.59,0,0,1-.12-.62,1.51,1.51,0,0,1,.12-.61,1.58,1.58,0,0,1,.34-.5,1.52,1.52,0,0,1,.51-.32,1.75,1.75,0,0,1,.65-.12,1.91,1.91,0,0,1,.64.11,1.5,1.5,0,0,1,.51.33,1.39,1.39,0,0,1,.34.49,1.59,1.59,0,0,1,.12.62,1.56,1.56,0,0,1-.12.62,1.39,1.39,0,0,1-.34.49,1.5,1.5,0,0,1-.51.33A1.91,1.91,0,0,1,110.72,33.5Zm0-.38a1.16,1.16,0,0,0,.47-.09,1.23,1.23,0,0,0,.38-.24,1.07,1.07,0,0,0,.24-.38,1.22,1.22,0,0,0,0-.92,1.12,1.12,0,0,0-.24-.37,1.09,1.09,0,0,0-.38-.25,1.16,1.16,0,0,0-.47-.08,1.17,1.17,0,0,0-.46.08,1.19,1.19,0,0,0-.38.25,1.26,1.26,0,0,0-.25,1.29,1.25,1.25,0,0,0,.25.38,1.36,1.36,0,0,0,.38.24A1.18,1.18,0,0,0,110.71,33.12Z"/><path class="cls-3" d="M114,33.5a2.07,2.07,0,0,1-.66-.1,1.39,1.39,0,0,1-.5-.28l.16-.34a1.33,1.33,0,0,0,.44.25,1.54,1.54,0,0,0,.56.1,1.27,1.27,0,0,0,.43-.06.48.48,0,0,0,.24-.16.35.35,0,0,0,.08-.24.34.34,0,0,0-.1-.26.93.93,0,0,0-.26-.15l-.36-.1-.39-.1a1.69,1.69,0,0,1-.36-.15.72.72,0,0,1-.27-.25.75.75,0,0,1-.1-.39.87.87,0,0,1,.13-.44.85.85,0,0,1,.38-.31,1.56,1.56,0,0,1,.66-.12,1.86,1.86,0,0,1,.52.07,1.54,1.54,0,0,1,.45.2l-.14.34a1.61,1.61,0,0,0-.83-.24,1.25,1.25,0,0,0-.42.06.51.51,0,0,0-.24.18.35.35,0,0,0-.08.24.3.3,0,0,0,.1.25.72.72,0,0,0,.27.16l.35.1.4.1a1.94,1.94,0,0,1,.36.15.85.85,0,0,1,.26.24.79.79,0,0,1,0,.82.83.83,0,0,1-.39.31A1.56,1.56,0,0,1,114,33.5Z"/><path class="cls-3" d="M118.06,33.5a1.33,1.33,0,0,1-.54-.1.9.9,0,0,1-.38-.27.68.68,0,0,1-.14-.42.78.78,0,0,1,.09-.37,1.23,1.23,0,0,1,.29-.33,3.87,3.87,0,0,1,.53-.32l.41-.25a.81.81,0,0,0,.21-.19.32.32,0,0,0,.07-.2.34.34,0,0,0-.11-.25.45.45,0,0,0-.3-.09.48.48,0,0,0-.31.1.34.34,0,0,0-.12.27.45.45,0,0,0,0,.16.62.62,0,0,0,.1.17l.22.23,1.61,1.6-.24.28-1.7-1.7a2.6,2.6,0,0,1-.24-.27,1.1,1.1,0,0,1-.13-.23.91.91,0,0,1,0-.23.61.61,0,0,1,.1-.36.73.73,0,0,1,.28-.24,1.18,1.18,0,0,1,.43-.08,1,1,0,0,1,.4.07.66.66,0,0,1,.27.22A.62.62,0,0,1,119,31a.59.59,0,0,1-.09.32.81.81,0,0,1-.27.29,3.84,3.84,0,0,1-.5.3,2.73,2.73,0,0,0-.41.25.85.85,0,0,0-.21.22.54.54,0,0,0-.06.25.41.41,0,0,0,.08.25.63.63,0,0,0,.24.18,1,1,0,0,0,.36.06,1.19,1.19,0,0,0,.53-.13,1.08,1.08,0,0,0,.39-.38,1.87,1.87,0,0,0,.23-.62l.33.11a2,2,0,0,1-.29.74,1.42,1.42,0,0,1-.52.46A1.47,1.47,0,0,1,118.06,33.5Z"/><path class="cls-3" d="M123,33.5a1.83,1.83,0,0,1-.64-.11,1.5,1.5,0,0,1-.51-.33,1.54,1.54,0,0,1-.34-.49,1.56,1.56,0,0,1-.12-.62,1.59,1.59,0,0,1,.12-.62,1.54,1.54,0,0,1,.34-.49,1.72,1.72,0,0,1,.51-.33,1.91,1.91,0,0,1,.64-.11,1.75,1.75,0,0,1,.65.12,1.37,1.37,0,0,1,.5.35l-.28.27a1.05,1.05,0,0,0-.39-.27,1.17,1.17,0,0,0-.46-.08,1.27,1.27,0,0,0-.48.08,1.36,1.36,0,0,0-.38.24,1.34,1.34,0,0,0-.25.37,1.42,1.42,0,0,0,0,.94,1.34,1.34,0,0,0,.25.37,1.36,1.36,0,0,0,.38.24,1.28,1.28,0,0,0,.48.09,1.18,1.18,0,0,0,.46-.09,1,1,0,0,0,.39-.28l.28.28a1.37,1.37,0,0,1-.5.35A1.75,1.75,0,0,1,123,33.5Z"/><path class="cls-3" d="M126.32,33.5a1.87,1.87,0,0,1-.64-.11,1.65,1.65,0,0,1-.52-.33,1.63,1.63,0,0,1-.33-.49,1.44,1.44,0,0,1-.13-.62,1.36,1.36,0,0,1,.13-.61,1.56,1.56,0,0,1,.33-.5,1.52,1.52,0,0,1,.51-.32,1.75,1.75,0,0,1,.65-.12,1.87,1.87,0,0,1,.64.11,1.5,1.5,0,0,1,.51.33,1.39,1.39,0,0,1,.34.49,1.59,1.59,0,0,1,.12.62,1.56,1.56,0,0,1-.12.62,1.39,1.39,0,0,1-.34.49,1.5,1.5,0,0,1-.51.33A1.87,1.87,0,0,1,126.32,33.5Zm0-.38a1.23,1.23,0,0,0,.47-.09,1.31,1.31,0,0,0,.37-.24,1.25,1.25,0,0,0,.25-.38,1.36,1.36,0,0,0,0-.92,1.34,1.34,0,0,0-.25-.37,1.15,1.15,0,0,0-.37-.25,1.22,1.22,0,0,0-.47-.08,1.19,1.19,0,0,0-.47.08,1.05,1.05,0,0,0-.37.25,1.2,1.2,0,0,0-.25,1.29,1.09,1.09,0,0,0,.25.38,1.2,1.2,0,0,0,.84.33Z"/><path class="cls-3" d="M128.73,33.47v-3h.36l2,2.5h-.18v-2.5h.43v3H131L129,31h.18v2.49Z"/><path class="cls-3" d="M133.27,33.5a2.07,2.07,0,0,1-.66-.1,1.39,1.39,0,0,1-.5-.28l.16-.34a1.33,1.33,0,0,0,.44.25,1.54,1.54,0,0,0,.56.1,1.27,1.27,0,0,0,.43-.06.48.48,0,0,0,.24-.16.35.35,0,0,0,.08-.24.34.34,0,0,0-.1-.26.93.93,0,0,0-.26-.15l-.36-.1-.39-.1a1.5,1.5,0,0,1-.36-.15.72.72,0,0,1-.27-.25.75.75,0,0,1-.1-.39.87.87,0,0,1,.13-.44.85.85,0,0,1,.38-.31,1.56,1.56,0,0,1,.66-.12,1.86,1.86,0,0,1,.52.07,1.54,1.54,0,0,1,.45.2l-.14.34a1.61,1.61,0,0,0-.83-.24,1.27,1.27,0,0,0-.43.06.56.56,0,0,0-.24.18.4.4,0,0,0-.07.24.3.3,0,0,0,.1.25.76.76,0,0,0,.26.16l.36.1.39.1a1.5,1.5,0,0,1,.36.15.78.78,0,0,1,.27.24.75.75,0,0,1,.1.39.79.79,0,0,1-.52.74A1.56,1.56,0,0,1,133.27,33.5Z"/><path class="cls-3" d="M136.47,33.5a1.28,1.28,0,0,1-.94-.34,1.39,1.39,0,0,1-.34-1V30.43h.43v1.71a1,1,0,0,0,.23.74.95.95,0,0,0,1.26,0,1,1,0,0,0,.23-.74V30.43h.42v1.73a1.39,1.39,0,0,1-.34,1A1.27,1.27,0,0,1,136.47,33.5Z"/><path class="cls-3" d="M138.78,33.47v-3h.44v2.66h1.64v.38Z"/><path class="cls-3" d="M142.1,33.47V30.81h-1v-.38h2.51v.38h-1v2.66Z"/><path class="cls-3" d="M145.55,33.5a1.87,1.87,0,0,1-.64-.11,1.53,1.53,0,0,1-.86-.82,1.59,1.59,0,0,1-.12-.62,1.51,1.51,0,0,1,.12-.61,1.58,1.58,0,0,1,.34-.5,1.52,1.52,0,0,1,.51-.32,1.71,1.71,0,0,1,.65-.12,1.91,1.91,0,0,1,.64.11,1.5,1.5,0,0,1,.51.33,1.39,1.39,0,0,1,.34.49,1.59,1.59,0,0,1,.12.62,1.56,1.56,0,0,1-.12.62,1.39,1.39,0,0,1-.34.49,1.5,1.5,0,0,1-.51.33A1.91,1.91,0,0,1,145.55,33.5Zm0-.38A1.19,1.19,0,0,0,146,33a1.23,1.23,0,0,0,.38-.24,1.07,1.07,0,0,0,.24-.38,1.22,1.22,0,0,0,0-.92,1.12,1.12,0,0,0-.24-.37,1.09,1.09,0,0,0-.38-.25,1.19,1.19,0,0,0-.47-.08,1.17,1.17,0,0,0-.46.08,1.19,1.19,0,0,0-.38.25,1.26,1.26,0,0,0-.25,1.29,1.25,1.25,0,0,0,.25.38,1.36,1.36,0,0,0,.38.24A1.18,1.18,0,0,0,145.54,33.12Z"/><path class="cls-3" d="M148,33.47v-3h1.18a1.72,1.72,0,0,1,.68.13,1,1,0,0,1,0,1.86,1.72,1.72,0,0,1-.68.12h-.94l.19-.19v1.12Zm.43-1.08-.19-.21h.93a1,1,0,0,0,.63-.18.64.64,0,0,0,.21-.51.61.61,0,0,0-.21-.5,1,1,0,0,0-.63-.18h-.93l.19-.22Zm1.6,1.08-.77-1.1h.46l.78,1.1Z"/><path class="cls-3" d="M151.25,33.47v-3h.43v3Z"/><path class="cls-3" d="M152.27,33.47l1.37-3h.43l1.38,3H155l-1.23-2.79h.17l-1.22,2.79Zm.59-.76.11-.35h1.71l.13.35Z"/><path class="cls-3" d="M155.82,34.11l.21-.88.06.26a.29.29,0,0,1-.21-.08.29.29,0,0,1-.09-.22.29.29,0,0,1,.09-.21.28.28,0,0,1,.2-.08.29.29,0,0,1,.21.08.32.32,0,0,1,.08.21s0,.06,0,.09,0,.06,0,.09,0,.08-.05.14l-.2.6Z"/><path class="cls-3" d="M158.47,33.47v-3h.43v2.66h1.64v.38Z"/><path class="cls-3" d="M161.18,33.47v-3h1.28a1.9,1.9,0,0,1,.85.19,1.44,1.44,0,0,1,.58.54,1.48,1.48,0,0,1,.21.79,1.46,1.46,0,0,1-.21.79,1.44,1.44,0,0,1-.58.54,1.9,1.9,0,0,1-.85.19Zm.43-.38h.82a1.53,1.53,0,0,0,.66-.14,1.08,1.08,0,0,0,.42-.4,1.19,1.19,0,0,0,.15-.6,1.16,1.16,0,0,0-.15-.6,1.08,1.08,0,0,0-.42-.4,1.53,1.53,0,0,0-.66-.14h-.82Z"/><path class="cls-3" d="M164.44,33.47l1.37-3h.43l1.38,3h-.45l-1.23-2.79h.17l-1.22,2.79Zm.58-.76.12-.35h1.71l.12.35Z"/><path class="cls-4" d="M72.84,16.12v-.2q0-.43,0-.87a10.29,10.29,0,0,1,3-6.44c.2-.21.42-.4.64-.59a5.75,5.75,0,0,0-1-.95q-2-1.5-6.12-1.5H58.76V26.28H70c2.82,0,5-.5,6.4-1.5a5,5,0,0,0,.67-.53A10.34,10.34,0,0,1,72.84,16.12ZM64.68,9.86h3.93a3.84,3.84,0,0,1,2.15.49,1.64,1.64,0,0,1,.72,1.46,1.67,1.67,0,0,1-.72,1.47,3.93,3.93,0,0,1-2.15.49H64.68Zm7,11.61A4,4,0,0,1,69.5,22H64.68V17.88H69.5a4,4,0,0,1,2.23.5,1.73,1.73,0,0,1,.76,1.54A1.77,1.77,0,0,1,71.73,21.47Z"/><path class="cls-4" d="M112,26.27V5.57h6v16h9.79v4.73Z"/><polygon class="cls-4" points="134.57 10.22 134.57 14.62 143.59 14.62 143.59 19.24 134.57 19.24 134.57 26.27 128.57 26.27 128.57 5.57 144.87 5.57 144.87 10.22 134.57 10.22"/><path class="cls-4" d="M158.65,5.57h-5.92l-9.11,20.71h6.1l1.58-4H160l1.57,4h6.21Zm-5.59,12.34,2.58-6.48,2.58,6.48Z"/><polygon class="cls-5" points="97.14 17.91 102.29 17.91 99.72 11.43 97.14 17.91"/><path d="M102.72,5.57H96.81l-2,4.62a10.32,10.32,0,0,1,1.73,5.73,10.83,10.83,0,0,1-.19,2,10.26,10.26,0,0,1-2,4.4,9.09,9.09,0,0,1-.82.93,10.31,10.31,0,0,1-5.73,2.91l0,.13h6.09l1.59-4h8.67l1.57,4h6.21ZM97.14,17.91l2.58-6.48,2.57,6.48Z"/><path class="cls-6" d="M95,15.92a10,10,0,0,1-.19,2,10.24,10.24,0,0,1-2,4.4,9.18,9.18,0,0,1-.83.93,10.25,10.25,0,0,1-5.72,2.91,10.47,10.47,0,0,1-1.6.13A10.36,10.36,0,0,1,74.32,16.12v-.2a8.44,8.44,0,0,1,0-.87,10.28,10.28,0,0,1,3-6.44c.21-.21.42-.4.64-.59a10.35,10.35,0,0,1,17,7.9Z"/><rect x="53.88" y="4.79" width="1.07" height="30.58"/></g></g></svg>