<svg xmlns="http://www.w3.org/2000/svg" xmlns:xlink="http://www.w3.org/1999/xlink" viewBox="0 0 165.1 137.97"><defs><style>.cls-1{fill:#fff;}.cls-2{fill:#e30613;}.cls-3{fill:url(#Gradiente_sem_nome_29);}.cls-4{fill:none;}.cls-5{fill:url(#Gradiente_sem_nome_29-2);}</style><linearGradient id="Gradiente_sem_nome_29" x1="42.82" y1="47.45" x2="138.86" y2="47.45" gradientUnits="userSpaceOnUse"><stop offset="0.01" stop-color="#be1622"/><stop offset="0.02" stop-color="#c9111e"/><stop offset="0.06" stop-color="#d80b18"/><stop offset="0.1" stop-color="#e00714"/><stop offset="0.16" stop-color="#e30613"/><stop offset="0.21" stop-color="#d50c19"/><stop offset="0.29" stop-color="#c41320"/><stop offset="0.35" stop-color="#be1622"/><stop offset="0.71" stop-color="#e30613"/><stop offset="0.85" stop-color="#be1622"/><stop offset="0.99" stop-color="#e30613"/></linearGradient><linearGradient id="Gradiente_sem_nome_29-2" x1="23.57" y1="110.42" x2="54.93" y2="110.42" xlink:href="#Gradiente_sem_nome_29"/></defs><g id="Camada_2" data-name="Camada 2"><g id="Camada_1-2" data-name="Camada 1"><path class="cls-1" d="M74,70.8a31,31,0,0,1-13.16,7.87C49.14,82,38.55,79.8,29.4,71.78A30.61,30.61,0,0,1,18.75,51.27c-.36-3.6-.24-7.25-.25-10.88,0-10.2,0-40.39,0-40.39L31.83,1.21s.15,33.88,0,45.94A19.4,19.4,0,0,0,48.23,66.52c7.54,1.12,13.67-1.64,18.39-7.58l.67-.86A38.45,38.45,0,0,0,74,70.8Z"/><path class="cls-2" d="M117.64,66.78Z"/><path class="cls-3" d="M138.86,66.78V80.14H115.62c-4.24,0-8.5.13-12.71-.22a30.77,30.77,0,0,1-20.23-9.87,32,32,0,0,1-9.12-22.53A19.42,19.42,0,0,0,54.07,28.15H42.82V14.77h1.29c3.56,0,7.13-.1,10.68,0,12.27.44,21.55,6,27.84,16.53A30.09,30.09,0,0,1,86.9,47,19.41,19.41,0,0,0,101.77,66.2a22.24,22.24,0,0,0,4.6.55c3.07.07,6.14,0,9.25,0Z"/><path class="cls-2" d="M117.44,80.14h0Z"/><path class="cls-1" d="M141.94,46.91A32.58,32.58,0,0,0,93.75,18.74a30.12,30.12,0,0,0-7.24,5.4A38.37,38.37,0,0,1,93.2,36.83l.65-.82c4.79-6.06,11.05-8.8,18.69-7.59a19.33,19.33,0,0,1,16.09,19.21c0,3.16,0,7.34,0,11.65H142C142,54.74,142,50.28,141.94,46.91Z"/><path class="cls-1" d="M.69,137V132.4H2.75a2,2,0,0,1,1.22.32,1,1,0,0,1,.43.87,1.14,1.14,0,0,1-.17.63,1.07,1.07,0,0,1-.45.39,1.4,1.4,0,0,1-.61.14l.12-.2a1.67,1.67,0,0,1,.69.14,1.06,1.06,0,0,1,.48.4,1.16,1.16,0,0,1,.18.66,1.08,1.08,0,0,1-.44.92,2.22,2.22,0,0,1-1.32.32Zm.66-.53H2.86a1.57,1.57,0,0,0,.83-.18A.65.65,0,0,0,4,135.7a.63.63,0,0,0-.29-.58,1.48,1.48,0,0,0-.83-.19H1.29v-.53h1.4a1.45,1.45,0,0,0,.78-.18.71.71,0,0,0,0-1.11,1.45,1.45,0,0,0-.78-.18H1.35Z"/><path class="cls-1" d="M5.93,137a.47.47,0,0,1-.32-.12.49.49,0,0,1-.13-.33.44.44,0,0,1,.13-.32.48.48,0,0,1,.32-.13.42.42,0,0,1,.3.13.41.41,0,0,1,.13.32.44.44,0,0,1-.13.33A.41.41,0,0,1,5.93,137Z"/><path class="cls-1" d="M6.87,137,9,132.4H9.6L11.69,137H11l-1.86-4.22h.27L7.55,137Zm.89-1.15.18-.52h2.58l.19.52Z"/><path class="cls-1" d="M12.58,137V132.4h.66v4h2.49V137Z"/><path class="cls-1" d="M17.35,137h-.66V132.4h3.25V133H17.35Zm-.07-2.42h2.37v.57H17.28Z"/><path class="cls-1" d="M20.38,137l2.08-4.59h.65L25.19,137h-.68l-1.86-4.22h.26L21.05,137Zm.88-1.15.18-.52H24l.19.52Z"/><path class="cls-1" d="M28.06,137V132.4h.66V137Z"/><path class="cls-1" d="M30.31,137V132.4h.54l3,3.77H33.6V132.4h.66V137h-.54l-3-3.77H31V137Z"/><path class="cls-1" d="M37.17,137l-2-4.59h.71l1.86,4.24h-.41l1.87-4.24h.66l-2,4.59Z"/><path class="cls-1" d="M41.39,136.42h2.68V137H40.73V132.4H44V133H41.39Zm-.06-2h2.36v.56H41.33Z"/><path class="cls-1" d="M46.68,137.05a3.27,3.27,0,0,1-1-.16,2.1,2.1,0,0,1-.76-.42l.24-.51a2.26,2.26,0,0,0,.67.38,2.45,2.45,0,0,0,.85.15,2,2,0,0,0,.65-.09.82.82,0,0,0,.37-.26.58.58,0,0,0,.12-.36.5.5,0,0,0-.16-.38,1,1,0,0,0-.4-.23,5,5,0,0,0-.54-.16,5.66,5.66,0,0,1-.59-.15,2.75,2.75,0,0,1-.55-.23,1.18,1.18,0,0,1-.4-.37,1.11,1.11,0,0,1-.15-.6,1.13,1.13,0,0,1,.19-.65,1.28,1.28,0,0,1,.58-.48,2.37,2.37,0,0,1,1-.18,3.13,3.13,0,0,1,.8.1,2.23,2.23,0,0,1,.68.3l-.22.53a2.19,2.19,0,0,0-.62-.29,2.41,2.41,0,0,0-.64-.09,1.91,1.91,0,0,0-.64.1.86.86,0,0,0-.36.27.57.57,0,0,0-.11.36.53.53,0,0,0,.15.39,1.11,1.11,0,0,0,.4.23,3.49,3.49,0,0,0,.54.15l.6.16a2.9,2.9,0,0,1,.54.22,1.18,1.18,0,0,1,.4.37,1.05,1.05,0,0,1,.15.59,1.17,1.17,0,0,1-.19.65,1.31,1.31,0,0,1-.59.48A2.42,2.42,0,0,1,46.68,137.05Z"/><path class="cls-1" d="M50.54,137v-4H49v-.57h3.81V133H51.19v4Z"/><path class="cls-1" d="M53.69,137V132.4h.66V137Z"/><path class="cls-1" d="M55.94,137V132.4h.53l2.07,3.47h-.29l2-3.47h.54V137H60.2v-3.6h.15l-1.81,3.05h-.3l-1.83-3.05h.17V137Z"/><path class="cls-1" d="M63.07,136.42h2.68V137H62.41V132.4h3.25V133H63.07Zm-.06-2h2.37v.56H63Z"/><path class="cls-1" d="M67,137V132.4h.54l3,3.77h-.28V132.4H71V137h-.53l-3-3.77h.28V137Z"/><path class="cls-1" d="M73.48,137v-4H71.9v-.57h3.8V133H74.13v4Z"/><path class="cls-1" d="M78.7,137.05a2.58,2.58,0,0,1-1-.18,2.27,2.27,0,0,1-.78-.5,2.31,2.31,0,0,1-.7-1.67,2.26,2.26,0,0,1,.19-.94A2.23,2.23,0,0,1,77,133a2.49,2.49,0,0,1,.77-.5,2.84,2.84,0,0,1,1-.17,2.54,2.54,0,0,1,1,.17,2.4,2.4,0,0,1,.78.49,2.17,2.17,0,0,1,.51.75,2.42,2.42,0,0,1,.18.94,2.34,2.34,0,0,1-.18.93,2.17,2.17,0,0,1-.51.75,2.25,2.25,0,0,1-.78.49A2.54,2.54,0,0,1,78.7,137.05Zm0-.59a1.88,1.88,0,0,0,.72-.13A1.76,1.76,0,0,0,80,136a1.79,1.79,0,0,0,.38-.56,1.82,1.82,0,0,0,.13-.7,1.75,1.75,0,0,0-.13-.7,1.68,1.68,0,0,0-.38-.56,1.64,1.64,0,0,0-.56-.38,1.88,1.88,0,0,0-.72-.13,1.82,1.82,0,0,0-.7.13,1.59,1.59,0,0,0-.57.38A1.68,1.68,0,0,0,77,134a1.75,1.75,0,0,0-.13.7,1.82,1.82,0,0,0,.13.7,1.79,1.79,0,0,0,.38.56,1.7,1.7,0,0,0,.57.37A1.82,1.82,0,0,0,78.69,136.46Z"/><path class="cls-1" d="M83.69,137.05a3.32,3.32,0,0,1-1-.16,2.1,2.1,0,0,1-.76-.42l.24-.51a2.26,2.26,0,0,0,.67.38,2.45,2.45,0,0,0,.85.15,2,2,0,0,0,.65-.09.82.82,0,0,0,.37-.26.58.58,0,0,0,.12-.36.5.5,0,0,0-.16-.38.92.92,0,0,0-.4-.23,5,5,0,0,0-.54-.16,5.66,5.66,0,0,1-.59-.15,2.75,2.75,0,0,1-.55-.23,1.18,1.18,0,0,1-.4-.37,1.11,1.11,0,0,1-.15-.6,1.13,1.13,0,0,1,.19-.65,1.28,1.28,0,0,1,.58-.48,2.37,2.37,0,0,1,1-.18,3.13,3.13,0,0,1,.8.1,2.23,2.23,0,0,1,.68.3l-.22.53a2.07,2.07,0,0,0-.62-.29,2.41,2.41,0,0,0-.64-.09,1.8,1.8,0,0,0-.63.1.83.83,0,0,0-.37.27.57.57,0,0,0-.11.36.53.53,0,0,0,.15.39,1.11,1.11,0,0,0,.4.23,3.84,3.84,0,0,0,.54.15l.6.16a2.65,2.65,0,0,1,.54.22,1.1,1.1,0,0,1,.4.37,1.05,1.05,0,0,1,.15.59,1.17,1.17,0,0,1-.19.65,1.31,1.31,0,0,1-.59.48A2.42,2.42,0,0,1,83.69,137.05Z"/><path class="cls-1" d="M89.83,137.05a2,2,0,0,1-.83-.16,1.45,1.45,0,0,1-.57-.41,1,1,0,0,1-.21-.63,1.19,1.19,0,0,1,.14-.56,1.67,1.67,0,0,1,.44-.5,4.77,4.77,0,0,1,.79-.49,6.67,6.67,0,0,0,.63-.37,1.35,1.35,0,0,0,.32-.3.57.57,0,0,0,.1-.31.48.48,0,0,0-.16-.36.7.7,0,0,0-.46-.14.73.73,0,0,0-.48.15.55.55,0,0,0-.17.41.67.67,0,0,0,0,.24.93.93,0,0,0,.16.25,4.57,4.57,0,0,0,.33.36l2.43,2.42-.36.42-2.58-2.57a3.9,3.9,0,0,1-.36-.41,1.74,1.74,0,0,1-.19-.35,1.07,1.07,0,0,1-.06-.35,1,1,0,0,1,.59-.9,1.51,1.51,0,0,1,.65-.13,1.58,1.58,0,0,1,.61.11,1,1,0,0,1,.4.33,1,1,0,0,1,.14.52,1,1,0,0,1-.13.48,1.51,1.51,0,0,1-.41.44,5.26,5.26,0,0,1-.76.45,3.82,3.82,0,0,0-.62.38,1.25,1.25,0,0,0-.32.34.82.82,0,0,0-.09.38.64.64,0,0,0,.12.38.85.85,0,0,0,.37.26,1.45,1.45,0,0,0,.54.09,1.59,1.59,0,0,0,.79-.19,1.63,1.63,0,0,0,.6-.57,2.86,2.86,0,0,0,.35-.95l.5.17a3.06,3.06,0,0,1-.45,1.12,2.08,2.08,0,0,1-.78.7A2.14,2.14,0,0,1,89.83,137.05Z"/><path class="cls-1" d="M97.36,137.05a2.54,2.54,0,0,1-1-.18,2.2,2.2,0,0,1-.77-.49,2.17,2.17,0,0,1-.51-.75,2.37,2.37,0,0,1,.51-2.62,2.4,2.4,0,0,1,.78-.49,2.49,2.49,0,0,1,1-.17,2.64,2.64,0,0,1,1,.18,2.13,2.13,0,0,1,.76.53l-.43.42a1.6,1.6,0,0,0-.59-.42,2,2,0,0,0-.7-.13,1.88,1.88,0,0,0-.72.13,1.7,1.7,0,0,0-.57.37,1.55,1.55,0,0,0-.38.56,1.85,1.85,0,0,0,0,1.41,1.47,1.47,0,0,0,.38.56,1.7,1.7,0,0,0,.57.37,1.88,1.88,0,0,0,.72.13,1.82,1.82,0,0,0,.7-.13,1.6,1.6,0,0,0,.59-.42l.43.41a2,2,0,0,1-.76.54A2.64,2.64,0,0,1,97.36,137.05Z"/><path class="cls-1" d="M102.33,137.05a2.58,2.58,0,0,1-1-.18,2.27,2.27,0,0,1-.78-.5,2.23,2.23,0,0,1-.51-.74,2.4,2.4,0,0,1,0-1.87,2.23,2.23,0,0,1,.51-.74,2.43,2.43,0,0,1,.78-.5,2.74,2.74,0,0,1,1-.17,2.54,2.54,0,0,1,1,.17,2.4,2.4,0,0,1,.78.49,2.17,2.17,0,0,1,.51.75,2.42,2.42,0,0,1,.18.94,2.34,2.34,0,0,1-.18.93,2.17,2.17,0,0,1-.51.75,2.25,2.25,0,0,1-.78.49A2.54,2.54,0,0,1,102.33,137.05Zm0-.59a1.87,1.87,0,0,0,.71-.13,1.66,1.66,0,0,0,.56-.37,1.79,1.79,0,0,0,.38-.56,1.82,1.82,0,0,0,.13-.7,1.75,1.75,0,0,0-.13-.7,1.68,1.68,0,0,0-.38-.56,1.55,1.55,0,0,0-.56-.38,1.87,1.87,0,0,0-.71-.13,1.83,1.83,0,0,0-.71.13,1.59,1.59,0,0,0-.57.38,1.66,1.66,0,0,0-.37.56,1.75,1.75,0,0,0-.14.7,1.82,1.82,0,0,0,.14.7,1.76,1.76,0,0,0,.37.56,1.7,1.7,0,0,0,.57.37A1.83,1.83,0,0,0,102.33,136.46Z"/><path class="cls-1" d="M106,137V132.4h.54l3,3.77h-.28V132.4h.65V137h-.53l-3-3.77h.28V137Z"/><path class="cls-1" d="M112.86,137.05a3.32,3.32,0,0,1-1-.16,2.19,2.19,0,0,1-.76-.42l.25-.51a2,2,0,0,0,.67.38,2.4,2.4,0,0,0,.84.15,1.91,1.91,0,0,0,.65-.09.82.82,0,0,0,.37-.26.58.58,0,0,0,.12-.36.46.46,0,0,0-.16-.38.92.92,0,0,0-.4-.23,5,5,0,0,0-.54-.16c-.2,0-.39-.09-.59-.15a3,3,0,0,1-.55-.23,1.15,1.15,0,0,1-.39-.37,1.11,1.11,0,0,1-.16-.6,1.21,1.21,0,0,1,.19-.65,1.33,1.33,0,0,1,.58-.48,2.37,2.37,0,0,1,1-.18,3.08,3.08,0,0,1,.8.1,2.23,2.23,0,0,1,.68.3l-.22.53a2.07,2.07,0,0,0-.62-.29,2.41,2.41,0,0,0-.64-.09,1.85,1.85,0,0,0-.63.1.83.83,0,0,0-.37.27.64.64,0,0,0-.11.36.53.53,0,0,0,.15.39,1.2,1.2,0,0,0,.4.23,4.26,4.26,0,0,0,.54.15l.6.16a2.65,2.65,0,0,1,.54.22,1.1,1.1,0,0,1,.4.37,1.05,1.05,0,0,1,.15.59,1.17,1.17,0,0,1-.19.65,1.31,1.31,0,0,1-.59.48A2.39,2.39,0,0,1,112.86,137.05Z"/><path class="cls-1" d="M117.71,137.05a1.94,1.94,0,0,1-1.42-.52,2,2,0,0,1-.52-1.52V132.4h.66V135a1.58,1.58,0,0,0,.34,1.13,1.48,1.48,0,0,0,1.91,0A1.58,1.58,0,0,0,119,135V132.4h.64V135a2.09,2.09,0,0,1-.52,1.52A1.94,1.94,0,0,1,117.71,137.05Z"/><path class="cls-1" d="M121.21,137V132.4h.66v4h2.49V137Z"/><path class="cls-1" d="M126.23,137v-4h-1.57v-.57h3.8V133h-1.58v4Z"/><path class="cls-1" d="M131.46,137.05a2.63,2.63,0,0,1-1-.18,2.23,2.23,0,0,1-.77-.5,2.31,2.31,0,0,1,0-3.35,2.38,2.38,0,0,1,.77-.5,2.84,2.84,0,0,1,1-.17,2.57,2.57,0,0,1,1,.17,2.4,2.4,0,0,1,.78.49,2.29,2.29,0,0,1,.5.75,2.42,2.42,0,0,1,.18.94,2.34,2.34,0,0,1-.18.93,2.29,2.29,0,0,1-.5.75,2.25,2.25,0,0,1-.78.49A2.58,2.58,0,0,1,131.46,137.05Zm0-.59a1.88,1.88,0,0,0,.72-.13,1.68,1.68,0,0,0,.93-.93,1.82,1.82,0,0,0,.14-.7,1.75,1.75,0,0,0-.14-.7,1.66,1.66,0,0,0-.37-.56,1.64,1.64,0,0,0-.56-.38,1.88,1.88,0,0,0-.72-.13,1.78,1.78,0,0,0-.7.13,1.59,1.59,0,0,0-.57.38,1.68,1.68,0,0,0-.38.56,1.75,1.75,0,0,0-.13.7,1.82,1.82,0,0,0,.13.7,1.79,1.79,0,0,0,.38.56,1.7,1.7,0,0,0,.57.37A1.78,1.78,0,0,0,131.45,136.46Z"/><path class="cls-1" d="M135.11,137V132.4h1.79a2.46,2.46,0,0,1,1,.19,1.44,1.44,0,0,1,.66.55,1.72,1.72,0,0,1,0,1.72,1.44,1.44,0,0,1-.66.55,2.63,2.63,0,0,1-1,.19h-1.43l.3-.31V137Zm.66-1.63-.3-.32h1.41a1.48,1.48,0,0,0,1-.27,1,1,0,0,0,.32-.77,1,1,0,0,0-.32-.76,1.48,1.48,0,0,0-1-.27h-1.41l.3-.33Zm2.41,1.63L137,135.33h.71L138.9,137Z"/><path class="cls-1" d="M140.09,137V132.4h.66V137Z"/><path class="cls-1" d="M141.64,137l2.08-4.59h.65l2.09,4.59h-.69l-1.86-4.22h.26L142.32,137Zm.89-1.15.17-.52h2.59l.19.52Z"/><path class="cls-1" d="M147,138l.33-1.33.08.38a.43.43,0,0,1-.31-.12.39.39,0,0,1-.13-.32.41.41,0,0,1,.13-.32.43.43,0,0,1,.62,0,.5.5,0,0,1,.11.32.57.57,0,0,1,0,.13.39.39,0,0,1,0,.14,1.21,1.21,0,0,1-.07.2l-.31.92Z"/><path class="cls-1" d="M151,137V132.4h.65v4h2.49V137Z"/><path class="cls-1" d="M155.14,137V132.4h1.93a2.71,2.71,0,0,1,1.3.29,2.11,2.11,0,0,1,.87.8,2.43,2.43,0,0,1,0,2.41,2.11,2.11,0,0,1-.87.8,2.71,2.71,0,0,1-1.3.29Zm.65-.57H157a2.16,2.16,0,0,0,1-.21,1.6,1.6,0,0,0,.65-.61,1.9,1.9,0,0,0,0-1.81,1.51,1.51,0,0,0-.65-.6,2,2,0,0,0-1-.22h-1.24Z"/><path class="cls-1" d="M160.07,137l2.08-4.59h.65l2.09,4.59h-.69l-1.85-4.22h.26L160.75,137Zm.89-1.15.18-.52h2.58l.19.52Z"/><path class="cls-1" d="M21.32,110.72v-.3c0-.45,0-.89.05-1.32a15.68,15.68,0,0,1,4.54-9.77c.31-.31.63-.6,1-.89A8.38,8.38,0,0,0,25.36,97c-2-1.5-5.13-2.26-9.28-2.26H0V126.1H17c4.27,0,7.5-.76,9.7-2.26a9,9,0,0,0,1-.81A15.65,15.65,0,0,1,21.32,110.72ZM9,101.24h6a5.9,5.9,0,0,1,3.25.73,2.81,2.81,0,0,1,0,4.44,5.9,5.9,0,0,1-3.25.74H9Zm10.68,17.58a6,6,0,0,1-3.38.78H9v-6.22h7.3a6.11,6.11,0,0,1,3.38.76,2.58,2.58,0,0,1,1.15,2.33A2.65,2.65,0,0,1,19.64,118.82Z"/><path class="cls-1" d="M80.61,126.1V94.74H89.7v24.19h14.83v7.17Z"/><polygon class="cls-1" points="114.83 101.77 114.83 108.45 128.5 108.45 128.5 115.44 114.83 115.44 114.83 126.1 105.74 126.1 105.74 94.74 130.43 94.74 130.43 101.77 114.83 101.77"/><path class="cls-1" d="M151.3,94.74h-9l-13.8,31.36h9.23l2.4-6H153.3l2.39,6h9.41Zm-8.47,18.68,3.92-9.81,3.9,9.81Z"/><polygon class="cls-4" points="58.13 113.42 65.94 113.42 62.04 103.61 58.13 113.42"/><path class="cls-1" d="M66.59,94.74h-9l-3.08,7a15.66,15.66,0,0,1-.71,18.35,16.92,16.92,0,0,1-1.25,1.42,15.69,15.69,0,0,1-8.68,4.4l-.08.19h9.23l2.4-6H68.59l2.39,6h9.41Zm-8.47,18.68L62,103.61l3.9,9.81Z"/><path class="cls-5" d="M54.93,110.42a15.62,15.62,0,0,1-3.35,9.67,14,14,0,0,1-1.25,1.42,15.63,15.63,0,0,1-8.67,4.4,14.7,14.7,0,0,1-2.41.19,15.68,15.68,0,0,1-15.68-15.38v-.3q0-.67.06-1.32a15.62,15.62,0,0,1,4.53-9.77c.31-.31.63-.6,1-.89a15.68,15.68,0,0,1,21.2.89,15.24,15.24,0,0,1,2,2.41A15.56,15.56,0,0,1,54.93,110.42Z"/></g></g></svg>